<?xml version="1.0" encoding="UTF-8"?>
<!-- Do not edit this file with editors other than draw.io -->
<!DOCTYPE svg PUBLIC "-//W3C//DTD SVG 1.1//EN" "http://www.w3.org/Graphics/SVG/1.1/DTD/svg11.dtd">
<svg xmlns="http://www.w3.org/2000/svg" style="background: #ffffff; background-color: #ffffff; color-scheme: light;" xmlns:xlink="http://www.w3.org/1999/xlink" version="1.1" width="939px" height="672px" viewBox="-0.5 -0.5 939 672" content="&lt;mxfile host=&quot;app.diagrams.net&quot; agent=&quot;Mozilla/5.0 (Windows NT 10.0; Win64; x64) AppleWebKit/537.36 (KHTML, like Gecko) Chrome/140.0.0.0 Safari/537.36 Edg/140.0.0.0&quot; version=&quot;28.2.5&quot; scale=&quot;0.65&quot; border=&quot;0&quot;&gt;&#10;  &lt;diagram name=&quot;Tier3Topology&quot; id=&quot;0&quot;&gt;&#10;    &lt;mxGraphModel dx=&quot;1760&quot; dy=&quot;2385&quot; grid=&quot;0&quot; gridSize=&quot;10&quot; guides=&quot;1&quot; tooltips=&quot;1&quot; connect=&quot;1&quot; arrows=&quot;1&quot; fold=&quot;1&quot; page=&quot;0&quot; pageScale=&quot;1&quot; pageWidth=&quot;850&quot; pageHeight=&quot;1100&quot; background=&quot;none&quot; math=&quot;0&quot; shadow=&quot;0&quot;&gt;&#10;      &lt;root&gt;&#10;        &lt;mxCell id=&quot;0&quot; /&gt;&#10;        &lt;mxCell id=&quot;1&quot; parent=&quot;0&quot; /&gt;&#10;        &lt;mxCell id=&quot;tEFLh3xXvXhqSFQfDNLb-22&quot; value=&quot;&quot; style=&quot;group;fontSize=20;fillColor=default;strokeColor=default;strokeWidth=2;&quot; parent=&quot;1&quot; vertex=&quot;1&quot; connectable=&quot;0&quot;&gt;&#10;          &lt;mxGeometry x=&quot;635&quot; y=&quot;-739&quot; width=&quot;1442&quot; height=&quot;926&quot; as=&quot;geometry&quot; /&gt;&#10;        &lt;/mxCell&gt;&#10;        &lt;mxCell id=&quot;tEFLh3xXvXhqSFQfDNLb-10&quot; value=&quot;Availability Zone 1&quot; style=&quot;fillColor=none;strokeColor=#147EBA;dashed=1;verticalAlign=top;fontStyle=0;fontColor=#147EBA;whiteSpace=wrap;html=1;rounded=0;movable=1;resizable=1;rotatable=1;deletable=1;editable=1;locked=0;connectable=1;fontSize=20;strokeWidth=2;&quot; parent=&quot;tEFLh3xXvXhqSFQfDNLb-22&quot; vertex=&quot;1&quot;&gt;&#10;          &lt;mxGeometry x=&quot;133.25&quot; y=&quot;37&quot; width=&quot;544.88&quot; height=&quot;871&quot; as=&quot;geometry&quot; /&gt;&#10;        &lt;/mxCell&gt;&#10;        &lt;mxCell id=&quot;tEFLh3xXvXhqSFQfDNLb-13&quot; value=&quot;Availability Zone 2&quot; style=&quot;fillColor=none;strokeColor=#147EBA;dashed=1;verticalAlign=top;fontStyle=0;fontColor=#147EBA;whiteSpace=wrap;html=1;rounded=0;movable=1;resizable=1;rotatable=1;deletable=1;editable=1;locked=0;connectable=1;fontSize=20;strokeWidth=2;perimeterSpacing=0;glass=0;shadow=0;&quot; parent=&quot;tEFLh3xXvXhqSFQfDNLb-22&quot; vertex=&quot;1&quot;&gt;&#10;          &lt;mxGeometry x=&quot;863&quot; y=&quot;34.36&quot; width=&quot;515&quot; height=&quot;874.64&quot; as=&quot;geometry&quot; /&gt;&#10;        &lt;/mxCell&gt;&#10;        &lt;mxCell id=&quot;tEFLh3xXvXhqSFQfDNLb-9&quot; value=&quot;VPC&quot; style=&quot;points=[[0,0],[0.25,0],[0.5,0],[0.75,0],[1,0],[1,0.25],[1,0.5],[1,0.75],[1,1],[0.75,1],[0.5,1],[0.25,1],[0,1],[0,0.75],[0,0.5],[0,0.25]];outlineConnect=0;gradientColor=none;html=1;whiteSpace=wrap;fontSize=20;fontStyle=0;container=0;pointerEvents=0;collapsible=0;recursiveResize=0;shape=mxgraph.aws4.group;grIcon=mxgraph.aws4.group_vpc2;strokeColor=#8C4FFF;fillColor=none;verticalAlign=top;align=left;spacingLeft=30;fontColor=light-dark(#AAB7B8, #b17dff);dashed=0;rounded=0;movable=1;resizable=1;rotatable=1;deletable=1;editable=1;locked=0;connectable=1;strokeWidth=2;&quot; parent=&quot;tEFLh3xXvXhqSFQfDNLb-22&quot; vertex=&quot;1&quot;&gt;&#10;          &lt;mxGeometry x=&quot;68.04&quot; y=&quot;104.8&quot; width=&quot;1345.96&quot; height=&quot;791.2&quot; as=&quot;geometry&quot; /&gt;&#10;        &lt;/mxCell&gt;&#10;        &lt;mxCell id=&quot;tEFLh3xXvXhqSFQfDNLb-15&quot; value=&quot;Public subnet&quot; style=&quot;points=[[0,0],[0.25,0],[0.5,0],[0.75,0],[1,0],[1,0.25],[1,0.5],[1,0.75],[1,1],[0.75,1],[0.5,1],[0.25,1],[0,1],[0,0.75],[0,0.5],[0,0.25]];outlineConnect=0;gradientColor=none;html=1;whiteSpace=wrap;fontSize=20;fontStyle=0;container=0;pointerEvents=0;collapsible=0;recursiveResize=0;shape=mxgraph.aws4.group;grIcon=mxgraph.aws4.group_security_group;grStroke=0;strokeColor=#7AA116;fillColor=#F2F6E8;verticalAlign=top;align=left;spacingLeft=30;fontColor=#248814;dashed=0;rounded=0;movable=1;resizable=1;rotatable=1;deletable=1;editable=1;locked=0;connectable=1;&quot; parent=&quot;tEFLh3xXvXhqSFQfDNLb-22&quot; vertex=&quot;1&quot;&gt;&#10;          &lt;mxGeometry x=&quot;173.56068204613845&quot; y=&quot;146.71688311688314&quot; width=&quot;461.382146439318&quot; height=&quot;252.54545454545456&quot; as=&quot;geometry&quot; /&gt;&#10;        &lt;/mxCell&gt;&#10;        &lt;mxCell id=&quot;tEFLh3xXvXhqSFQfDNLb-16&quot; value=&quot;Private subnet 1&quot; style=&quot;points=[[0,0],[0.25,0],[0.5,0],[0.75,0],[1,0],[1,0.25],[1,0.5],[1,0.75],[1,1],[0.75,1],[0.5,1],[0.25,1],[0,1],[0,0.75],[0,0.5],[0,0.25]];outlineConnect=0;gradientColor=none;html=1;whiteSpace=wrap;fontSize=20;fontStyle=0;container=1;pointerEvents=0;collapsible=0;recursiveResize=0;shape=mxgraph.aws4.group;grIcon=mxgraph.aws4.group_security_group;grStroke=0;strokeColor=#00A4A6;fillColor=#E6F6F7;verticalAlign=top;align=left;spacingLeft=30;fontColor=#147EBA;dashed=0;rounded=0;movable=1;resizable=1;rotatable=1;deletable=1;editable=1;locked=0;connectable=1;&quot; parent=&quot;tEFLh3xXvXhqSFQfDNLb-22&quot; vertex=&quot;1&quot;&gt;&#10;          &lt;mxGeometry x=&quot;172.11&quot; y=&quot;439&quot; width=&quot;464.27&quot; height=&quot;163&quot; as=&quot;geometry&quot; /&gt;&#10;        &lt;/mxCell&gt;&#10;        &lt;mxCell id=&quot;tEFLh3xXvXhqSFQfDNLb-25&quot; value=&quot;Private subnet 3&quot; style=&quot;points=[[0,0],[0.25,0],[0.5,0],[0.75,0],[1,0],[1,0.25],[1,0.5],[1,0.75],[1,1],[0.75,1],[0.5,1],[0.25,1],[0,1],[0,0.75],[0,0.5],[0,0.25]];outlineConnect=0;gradientColor=none;html=1;whiteSpace=wrap;fontSize=20;fontStyle=0;container=1;pointerEvents=0;collapsible=0;recursiveResize=0;shape=mxgraph.aws4.group;grIcon=mxgraph.aws4.group_security_group;grStroke=0;strokeColor=#00A4A6;fillColor=#E6F6F7;verticalAlign=top;align=left;spacingLeft=30;fontColor=#147EBA;dashed=0;rounded=0;movable=1;resizable=1;rotatable=1;deletable=1;editable=1;locked=0;connectable=1;&quot; parent=&quot;tEFLh3xXvXhqSFQfDNLb-22&quot; vertex=&quot;1&quot;&gt;&#10;          &lt;mxGeometry x=&quot;892.37&quot; y=&quot;680&quot; width=&quot;464.27&quot; height=&quot;163&quot; as=&quot;geometry&quot; /&gt;&#10;        &lt;/mxCell&gt;&#10;        &lt;mxCell id=&quot;tEFLh3xXvXhqSFQfDNLb-26&quot; value=&quot;Private subnet 2&quot; style=&quot;points=[[0,0],[0.25,0],[0.5,0],[0.75,0],[1,0],[1,0.25],[1,0.5],[1,0.75],[1,1],[0.75,1],[0.5,1],[0.25,1],[0,1],[0,0.75],[0,0.5],[0,0.25]];outlineConnect=0;gradientColor=none;html=1;whiteSpace=wrap;fontSize=20;fontStyle=0;container=1;pointerEvents=0;collapsible=0;recursiveResize=0;shape=mxgraph.aws4.group;grIcon=mxgraph.aws4.group_security_group;grStroke=0;strokeColor=#00A4A6;fillColor=#E6F6F7;verticalAlign=top;align=left;spacingLeft=30;fontColor=#147EBA;dashed=0;rounded=0;movable=1;resizable=1;rotatable=1;deletable=1;editable=1;locked=0;connectable=1;&quot; parent=&quot;tEFLh3xXvXhqSFQfDNLb-22&quot; vertex=&quot;1&quot;&gt;&#10;          &lt;mxGeometry x=&quot;173.56000000000006&quot; y=&quot;680&quot; width=&quot;464.27&quot; height=&quot;163&quot; as=&quot;geometry&quot; /&gt;&#10;        &lt;/mxCell&gt;&#10;        &lt;mxCell id=&quot;tEFLh3xXvXhqSFQfDNLb-30&quot; value=&quot;Security group&quot; style=&quot;fillColor=none;strokeColor=#DD3522;verticalAlign=top;fontStyle=0;fontColor=#DD3522;whiteSpace=wrap;html=1;fontSize=20;&quot; parent=&quot;tEFLh3xXvXhqSFQfDNLb-22&quot; vertex=&quot;1&quot;&gt;&#10;          &lt;mxGeometry x=&quot;178&quot; y=&quot;239&quot; width=&quot;187&quot; height=&quot;130&quot; as=&quot;geometry&quot; /&gt;&#10;        &lt;/mxCell&gt;&#10;        &lt;mxCell id=&quot;tEFLh3xXvXhqSFQfDNLb-33&quot; value=&quot;Security group&quot; style=&quot;fillColor=none;strokeColor=#DD3522;verticalAlign=top;fontStyle=0;fontColor=#DD3522;whiteSpace=wrap;html=1;fontSize=20;&quot; parent=&quot;tEFLh3xXvXhqSFQfDNLb-22&quot; vertex=&quot;1&quot;&gt;&#10;          &lt;mxGeometry x=&quot;329.5&quot; y=&quot;462&quot; width=&quot;161&quot; height=&quot;114&quot; as=&quot;geometry&quot; /&gt;&#10;        &lt;/mxCell&gt;&#10;        &lt;mxCell id=&quot;tEFLh3xXvXhqSFQfDNLb-32&quot; value=&quot;Security group&quot; style=&quot;fillColor=none;strokeColor=#DD3522;verticalAlign=top;fontStyle=0;fontColor=#DD3522;whiteSpace=wrap;html=1;fontSize=20;&quot; parent=&quot;tEFLh3xXvXhqSFQfDNLb-22&quot; vertex=&quot;1&quot;&gt;&#10;          &lt;mxGeometry x=&quot;377&quot; y=&quot;696.5&quot; width=&quot;251&quot; height=&quot;130&quot; as=&quot;geometry&quot; /&gt;&#10;        &lt;/mxCell&gt;&#10;        &lt;mxCell id=&quot;dQKSGRMoL7s1ueKJHOKg-15&quot; style=&quot;edgeStyle=orthogonalEdgeStyle;shape=connector;rounded=1;orthogonalLoop=1;jettySize=auto;html=1;exitX=0.75;exitY=1;exitDx=0;exitDy=0;exitPerimeter=0;strokeColor=default;align=center;verticalAlign=middle;fontFamily=Helvetica;fontSize=20;fontColor=default;labelBackgroundColor=default;startArrow=classic;startFill=1;endArrow=classic;sourcePerimeterSpacing=8;targetPerimeterSpacing=8;&quot; parent=&quot;tEFLh3xXvXhqSFQfDNLb-22&quot; source=&quot;tEFLh3xXvXhqSFQfDNLb-36&quot; target=&quot;tEFLh3xXvXhqSFQfDNLb-37&quot; edge=&quot;1&quot;&gt;&#10;          &lt;mxGeometry relative=&quot;1&quot; as=&quot;geometry&quot; /&gt;&#10;        &lt;/mxCell&gt;&#10;        &lt;mxCell id=&quot;dQKSGRMoL7s1ueKJHOKg-17&quot; style=&quot;edgeStyle=orthogonalEdgeStyle;shape=connector;rounded=1;orthogonalLoop=1;jettySize=auto;html=1;exitX=0;exitY=0.5;exitDx=0;exitDy=0;exitPerimeter=0;strokeColor=default;align=center;verticalAlign=middle;fontFamily=Helvetica;fontSize=20;fontColor=default;labelBackgroundColor=default;startArrow=classic;startFill=1;endArrow=none;sourcePerimeterSpacing=8;targetPerimeterSpacing=8;endFill=0;&quot; parent=&quot;tEFLh3xXvXhqSFQfDNLb-22&quot; source=&quot;tEFLh3xXvXhqSFQfDNLb-36&quot; edge=&quot;1&quot;&gt;&#10;          &lt;mxGeometry relative=&quot;1&quot; as=&quot;geometry&quot;&gt;&#10;            &lt;mxPoint x=&quot;101.76923076923072&quot; y=&quot;515.3846153846152&quot; as=&quot;targetPoint&quot; /&gt;&#10;          &lt;/mxGeometry&gt;&#10;        &lt;/mxCell&gt;&#10;        &lt;mxCell id=&quot;tEFLh3xXvXhqSFQfDNLb-36&quot; value=&quot;App Server&quot; style=&quot;sketch=0;points=[[0,0,0],[0.25,0,0],[0.5,0,0],[0.75,0,0],[1,0,0],[0,1,0],[0.25,1,0],[0.5,1,0],[0.75,1,0],[1,1,0],[0,0.25,0],[0,0.5,0],[0,0.75,0],[1,0.25,0],[1,0.5,0],[1,0.75,0]];outlineConnect=0;fontColor=#232F3E;fillColor=#ED7100;strokeColor=#ffffff;dashed=0;verticalLabelPosition=bottom;verticalAlign=top;align=center;html=1;fontSize=20;fontStyle=0;aspect=fixed;shape=mxgraph.aws4.resourceIcon;resIcon=mxgraph.aws4.compute;&quot; parent=&quot;tEFLh3xXvXhqSFQfDNLb-22&quot; vertex=&quot;1&quot;&gt;&#10;          &lt;mxGeometry x=&quot;384&quot; y=&quot;491&quot; width=&quot;50&quot; height=&quot;50&quot; as=&quot;geometry&quot; /&gt;&#10;        &lt;/mxCell&gt;&#10;        &lt;mxCell id=&quot;dQKSGRMoL7s1ueKJHOKg-16&quot; style=&quot;edgeStyle=orthogonalEdgeStyle;rounded=1;orthogonalLoop=1;jettySize=auto;html=1;exitX=0;exitY=0.5;exitDx=0;exitDy=0;exitPerimeter=0;strokeColor=default;align=center;verticalAlign=middle;fontFamily=Helvetica;fontSize=20;fontColor=default;labelBackgroundColor=default;startArrow=classic;startFill=1;endArrow=classic;sourcePerimeterSpacing=8;targetPerimeterSpacing=8;&quot; parent=&quot;tEFLh3xXvXhqSFQfDNLb-22&quot; source=&quot;tEFLh3xXvXhqSFQfDNLb-35&quot; target=&quot;tEFLh3xXvXhqSFQfDNLb-37&quot; edge=&quot;1&quot;&gt;&#10;          &lt;mxGeometry relative=&quot;1&quot; as=&quot;geometry&quot;&gt;&#10;            &lt;Array as=&quot;points&quot;&gt;&#10;              &lt;mxPoint x=&quot;103&quot; y=&quot;312&quot; /&gt;&#10;              &lt;mxPoint x=&quot;103&quot; y=&quot;760&quot; /&gt;&#10;            &lt;/Array&gt;&#10;          &lt;/mxGeometry&gt;&#10;        &lt;/mxCell&gt;&#10;        &lt;mxCell id=&quot;tEFLh3xXvXhqSFQfDNLb-35&quot; value=&quot;Bastion Host&quot; style=&quot;sketch=0;points=[[0,0,0],[0.25,0,0],[0.5,0,0],[0.75,0,0],[1,0,0],[0,1,0],[0.25,1,0],[0.5,1,0],[0.75,1,0],[1,1,0],[0,0.25,0],[0,0.5,0],[0,0.75,0],[1,0.25,0],[1,0.5,0],[1,0.75,0]];outlineConnect=0;fontColor=#232F3E;fillColor=#ED7100;strokeColor=#ffffff;dashed=0;verticalLabelPosition=bottom;verticalAlign=top;align=center;html=1;fontSize=20;fontStyle=0;aspect=fixed;shape=mxgraph.aws4.resourceIcon;resIcon=mxgraph.aws4.compute;&quot; parent=&quot;tEFLh3xXvXhqSFQfDNLb-22&quot; vertex=&quot;1&quot;&gt;&#10;          &lt;mxGeometry x=&quot;243&quot; y=&quot;285&quot; width=&quot;53&quot; height=&quot;53&quot; as=&quot;geometry&quot; /&gt;&#10;        &lt;/mxCell&gt;&#10;        &lt;mxCell id=&quot;tEFLh3xXvXhqSFQfDNLb-34&quot; value=&quot;Web Server&quot; style=&quot;sketch=0;points=[[0,0,0],[0.25,0,0],[0.5,0,0],[0.75,0,0],[1,0,0],[0,1,0],[0.25,1,0],[0.5,1,0],[0.75,1,0],[1,1,0],[0,0.25,0],[0,0.5,0],[0,0.75,0],[1,0.25,0],[1,0.5,0],[1,0.75,0]];outlineConnect=0;fontColor=#232F3E;fillColor=#ED7100;strokeColor=#ffffff;dashed=0;verticalLabelPosition=bottom;verticalAlign=top;align=center;html=1;fontSize=20;fontStyle=0;aspect=fixed;shape=mxgraph.aws4.resourceIcon;resIcon=mxgraph.aws4.compute;&quot; parent=&quot;tEFLh3xXvXhqSFQfDNLb-22&quot; vertex=&quot;1&quot;&gt;&#10;          &lt;mxGeometry x=&quot;504.5&quot; y=&quot;183&quot; width=&quot;51&quot; height=&quot;51&quot; as=&quot;geometry&quot; /&gt;&#10;        &lt;/mxCell&gt;&#10;        &lt;mxCell id=&quot;tEFLh3xXvXhqSFQfDNLb-37&quot; value=&quot;Databse Server Primary&quot; style=&quot;sketch=0;outlineConnect=0;fontColor=#232F3E;gradientColor=none;fillColor=#C925D1;strokeColor=none;dashed=0;verticalLabelPosition=bottom;verticalAlign=top;align=center;html=1;fontSize=20;fontStyle=0;aspect=fixed;pointerEvents=1;shape=mxgraph.aws4.rds_instance;&quot; parent=&quot;tEFLh3xXvXhqSFQfDNLb-22&quot; vertex=&quot;1&quot;&gt;&#10;          &lt;mxGeometry x=&quot;482&quot; y=&quot;728&quot; width=&quot;52&quot; height=&quot;52&quot; as=&quot;geometry&quot; /&gt;&#10;        &lt;/mxCell&gt;&#10;        &lt;mxCell id=&quot;tEFLh3xXvXhqSFQfDNLb-39&quot; value=&quot;&quot; style=&quot;sketch=0;outlineConnect=0;fontColor=#232F3E;gradientColor=none;fillColor=#8C4FFF;strokeColor=none;dashed=0;verticalLabelPosition=bottom;verticalAlign=top;align=center;html=1;fontSize=20;fontStyle=0;aspect=fixed;pointerEvents=1;shape=mxgraph.aws4.nat_gateway;&quot; parent=&quot;tEFLh3xXvXhqSFQfDNLb-22&quot; vertex=&quot;1&quot;&gt;&#10;          &lt;mxGeometry x=&quot;384.5&quot; y=&quot;263&quot; width=&quot;51&quot; height=&quot;51&quot; as=&quot;geometry&quot; /&gt;&#10;        &lt;/mxCell&gt;&#10;        &lt;mxCell id=&quot;tEFLh3xXvXhqSFQfDNLb-38&quot; value=&quot;&quot; style=&quot;sketch=0;outlineConnect=0;fontColor=#232F3E;gradientColor=none;fillColor=#8C4FFF;strokeColor=none;dashed=0;verticalLabelPosition=bottom;verticalAlign=top;align=center;html=1;fontSize=20;fontStyle=0;aspect=fixed;pointerEvents=1;shape=mxgraph.aws4.internet_gateway;points=[];&quot; parent=&quot;tEFLh3xXvXhqSFQfDNLb-22&quot; vertex=&quot;1&quot;&gt;&#10;          &lt;mxGeometry x=&quot;732&quot; y=&quot;57&quot; width=&quot;77.72&quot; height=&quot;77.72&quot; as=&quot;geometry&quot; /&gt;&#10;        &lt;/mxCell&gt;&#10;        &lt;mxCell id=&quot;dQKSGRMoL7s1ueKJHOKg-13&quot; style=&quot;edgeStyle=orthogonalEdgeStyle;orthogonalLoop=1;jettySize=auto;html=1;entryX=0.75;entryY=0;entryDx=0;entryDy=0;entryPerimeter=0;startArrow=classic;startFill=1;sourcePerimeterSpacing=8;targetPerimeterSpacing=8;fontSize=20;&quot; parent=&quot;tEFLh3xXvXhqSFQfDNLb-22&quot; source=&quot;tEFLh3xXvXhqSFQfDNLb-38&quot; target=&quot;tEFLh3xXvXhqSFQfDNLb-34&quot; edge=&quot;1&quot;&gt;&#10;          &lt;mxGeometry relative=&quot;1&quot; as=&quot;geometry&quot; /&gt;&#10;        &lt;/mxCell&gt;&#10;        &lt;mxCell id=&quot;dQKSGRMoL7s1ueKJHOKg-14&quot; style=&quot;edgeStyle=orthogonalEdgeStyle;shape=connector;rounded=1;orthogonalLoop=1;jettySize=auto;html=1;exitX=0.5;exitY=1;exitDx=0;exitDy=0;exitPerimeter=0;entryX=1;entryY=0;entryDx=0;entryDy=0;entryPerimeter=0;strokeColor=default;align=center;verticalAlign=middle;fontFamily=Helvetica;fontSize=20;fontColor=default;labelBackgroundColor=default;startArrow=classic;startFill=1;endArrow=classic;sourcePerimeterSpacing=8;targetPerimeterSpacing=8;&quot; parent=&quot;tEFLh3xXvXhqSFQfDNLb-22&quot; source=&quot;tEFLh3xXvXhqSFQfDNLb-34&quot; target=&quot;tEFLh3xXvXhqSFQfDNLb-36&quot; edge=&quot;1&quot;&gt;&#10;          &lt;mxGeometry relative=&quot;1&quot; as=&quot;geometry&quot; /&gt;&#10;        &lt;/mxCell&gt;&#10;        &lt;mxCell id=&quot;dQKSGRMoL7s1ueKJHOKg-19&quot; style=&quot;edgeStyle=orthogonalEdgeStyle;shape=connector;rounded=1;orthogonalLoop=1;jettySize=auto;html=1;entryX=0.5;entryY=0;entryDx=0;entryDy=0;entryPerimeter=0;strokeColor=default;align=center;verticalAlign=middle;fontFamily=Helvetica;fontSize=20;fontColor=default;labelBackgroundColor=default;startArrow=none;startFill=0;endArrow=classic;sourcePerimeterSpacing=8;targetPerimeterSpacing=8;&quot; parent=&quot;tEFLh3xXvXhqSFQfDNLb-22&quot; source=&quot;tEFLh3xXvXhqSFQfDNLb-39&quot; target=&quot;tEFLh3xXvXhqSFQfDNLb-36&quot; edge=&quot;1&quot;&gt;&#10;          &lt;mxGeometry relative=&quot;1&quot; as=&quot;geometry&quot; /&gt;&#10;        &lt;/mxCell&gt;&#10;        &lt;mxCell id=&quot;tEFLh3xXvXhqSFQfDNLb-8&quot; value=&quot;AWS Cloud&quot; style=&quot;points=[[0,0],[0.25,0],[0.5,0],[0.75,0],[1,0],[1,0.25],[1,0.5],[1,0.75],[1,1],[0.75,1],[0.5,1],[0.25,1],[0,1],[0,0.75],[0,0.5],[0,0.25]];outlineConnect=0;gradientColor=none;html=1;whiteSpace=wrap;fontSize=20;fontStyle=0;container=1;pointerEvents=0;collapsible=0;recursiveResize=0;shape=mxgraph.aws4.group;grIcon=mxgraph.aws4.group_aws_cloud_alt;strokeColor=#232F3E;fillColor=none;verticalAlign=top;align=left;spacingLeft=30;fontColor=#232F3E;dashed=0;rounded=0;movable=1;resizable=1;rotatable=1;deletable=1;editable=1;locked=0;connectable=1;&quot; parent=&quot;tEFLh3xXvXhqSFQfDNLb-22&quot; vertex=&quot;1&quot;&gt;&#10;          &lt;mxGeometry width=&quot;1442&quot; height=&quot;926&quot; as=&quot;geometry&quot; /&gt;&#10;        &lt;/mxCell&gt;&#10;        &lt;mxCell id=&quot;9mmT4nvgBSCIqZwyjkyF-6&quot; value=&quot;&quot; style=&quot;edgeStyle=orthogonalEdgeStyle;html=1;endArrow=block;elbow=vertical;startArrow=block;startFill=1;endFill=1;strokeColor=default;rounded=1;curved=0;&quot; edge=&quot;1&quot; parent=&quot;tEFLh3xXvXhqSFQfDNLb-8&quot; source=&quot;tEFLh3xXvXhqSFQfDNLb-35&quot;&gt;&#10;          &lt;mxGeometry width=&quot;100&quot; relative=&quot;1&quot; as=&quot;geometry&quot;&gt;&#10;            &lt;mxPoint x=&quot;409.99600000000004&quot; y=&quot;249.48000000000002&quot; as=&quot;sourcePoint&quot; /&gt;&#10;            &lt;mxPoint x=&quot;725.44&quot; y=&quot;77&quot; as=&quot;targetPoint&quot; /&gt;&#10;            &lt;Array as=&quot;points&quot;&gt;&#10;              &lt;mxPoint x=&quot;281&quot; y=&quot;77&quot; /&gt;&#10;            &lt;/Array&gt;&#10;          &lt;/mxGeometry&gt;&#10;        &lt;/mxCell&gt;&#10;        &lt;mxCell id=&quot;9mmT4nvgBSCIqZwyjkyF-7&quot; value=&quot;&quot; style=&quot;edgeStyle=orthogonalEdgeStyle;html=1;endArrow=none;elbow=vertical;startArrow=open;startFill=0;strokeColor=default;rounded=1;exitX=0.471;exitY=0.005;exitDx=0;exitDy=0;exitPerimeter=0;curved=0;&quot; edge=&quot;1&quot; parent=&quot;tEFLh3xXvXhqSFQfDNLb-8&quot; source=&quot;tEFLh3xXvXhqSFQfDNLb-39&quot;&gt;&#10;          &lt;mxGeometry width=&quot;100&quot; relative=&quot;1&quot; as=&quot;geometry&quot;&gt;&#10;            &lt;mxPoint x=&quot;624&quot; y=&quot;115&quot; as=&quot;sourcePoint&quot; /&gt;&#10;            &lt;mxPoint x=&quot;724&quot; y=&quot;115&quot; as=&quot;targetPoint&quot; /&gt;&#10;            &lt;Array as=&quot;points&quot;&gt;&#10;              &lt;mxPoint x=&quot;409&quot; y=&quot;115&quot; /&gt;&#10;            &lt;/Array&gt;&#10;          &lt;/mxGeometry&gt;&#10;        &lt;/mxCell&gt;&#10;        &lt;mxCell id=&quot;tEFLh3xXvXhqSFQfDNLb-27&quot; value=&quot;Security group&quot; style=&quot;fillColor=none;strokeColor=#DD3522;verticalAlign=top;fontStyle=0;fontColor=#DD3522;whiteSpace=wrap;html=1;fontSize=20;&quot; parent=&quot;tEFLh3xXvXhqSFQfDNLb-22&quot; vertex=&quot;1&quot;&gt;&#10;          &lt;mxGeometry x=&quot;450&quot; y=&quot;153&quot; width=&quot;170&quot; height=&quot;118&quot; as=&quot;geometry&quot; /&gt;&#10;        &lt;/mxCell&gt;&#10;        &lt;mxCell id=&quot;tEFLh3xXvXhqSFQfDNLb-44&quot; value=&quot;subnet group&quot; style=&quot;fillColor=none;strokeColor=light-dark(#000000,#147EBA);dashed=1;verticalAlign=top;fontStyle=0;fontColor=#232F3D;whiteSpace=wrap;html=1;dashPattern=8 8;fontSize=20;&quot; parent=&quot;tEFLh3xXvXhqSFQfDNLb-22&quot; vertex=&quot;1&quot;&gt;&#10;          &lt;mxGeometry x=&quot;450&quot; y=&quot;721&quot; width=&quot;637&quot; height=&quot;95&quot; as=&quot;geometry&quot; /&gt;&#10;        &lt;/mxCell&gt;&#10;        &lt;mxCell id=&quot;tEFLh3xXvXhqSFQfDNLb-45&quot; style=&quot;edgeStyle=orthogonalEdgeStyle;orthogonalLoop=1;jettySize=auto;html=1;fontSize=20;&quot; parent=&quot;1&quot; source=&quot;tEFLh3xXvXhqSFQfDNLb-40&quot; target=&quot;tEFLh3xXvXhqSFQfDNLb-38&quot; edge=&quot;1&quot;&gt;&#10;          &lt;mxGeometry relative=&quot;1&quot; as=&quot;geometry&quot; /&gt;&#10;        &lt;/mxCell&gt;&#10;        &lt;object label=&quot;Administrators&quot; id=&quot;tEFLh3xXvXhqSFQfDNLb-40&quot;&gt;&#10;          &lt;mxCell style=&quot;sketch=0;outlineConnect=0;fontColor=#232F3E;gradientColor=none;fillColor=#232F3D;strokeColor=none;dashed=0;verticalLabelPosition=bottom;verticalAlign=top;align=center;html=1;fontSize=12;fontStyle=0;aspect=fixed;pointerEvents=1;shape=mxgraph.aws4.users;&quot; parent=&quot;1&quot; vertex=&quot;1&quot;&gt;&#10;            &lt;mxGeometry x=&quot;898&quot; y=&quot;-844.5&quot; width=&quot;78&quot; height=&quot;78&quot; as=&quot;geometry&quot; /&gt;&#10;          &lt;/mxCell&gt;&#10;        &lt;/object&gt;&#10;        &lt;mxCell id=&quot;tEFLh3xXvXhqSFQfDNLb-46&quot; style=&quot;edgeStyle=orthogonalEdgeStyle;orthogonalLoop=1;jettySize=auto;html=1;fontSize=20;&quot; parent=&quot;1&quot; source=&quot;tEFLh3xXvXhqSFQfDNLb-41&quot; target=&quot;tEFLh3xXvXhqSFQfDNLb-38&quot; edge=&quot;1&quot;&gt;&#10;          &lt;mxGeometry relative=&quot;1&quot; as=&quot;geometry&quot; /&gt;&#10;        &lt;/mxCell&gt;&#10;        &lt;mxCell id=&quot;tEFLh3xXvXhqSFQfDNLb-41&quot; value=&quot;Clients&quot; style=&quot;sketch=0;verticalLabelPosition=bottom;sketch=0;aspect=fixed;html=1;verticalAlign=top;strokeColor=none;fillColor=#000000;align=center;outlineConnect=0;pointerEvents=1;shape=mxgraph.citrix2.desktop;fontSize=20;&quot; parent=&quot;1&quot; vertex=&quot;1&quot;&gt;&#10;          &lt;mxGeometry x=&quot;1621&quot; y=&quot;-835&quot; width=&quot;76.31&quot; height=&quot;59&quot; as=&quot;geometry&quot; /&gt;&#10;        &lt;/mxCell&gt;&#10;      &lt;/root&gt;&#10;    &lt;/mxGraphModel&gt;&#10;  &lt;/diagram&gt;&#10;&lt;/mxfile&gt;&#10;"><defs/><rect fill="#ffffff" width="100%" height="100%" x="0" y="0" style="fill: rgb(255, 255, 255);"/><g><g data-cell-id="0"><g data-cell-id="1"><g data-cell-id="tEFLh3xXvXhqSFQfDNLb-22"><g><rect x="0.65" y="68.25" width="937.3" height="601.9" fill="#ffffff" stroke="#000000" stroke-width="1.3" pointer-events="all" style="fill: rgb(255, 255, 255); stroke: rgb(0, 0, 0);"/></g><g data-cell-id="tEFLh3xXvXhqSFQfDNLb-10"><g><rect x="87.26" y="92.3" width="354.17" height="566.15" fill="none" stroke="#147eba" stroke-width="1.3" stroke-dasharray="3.9 3.9" pointer-events="all" style="stroke: rgb(20, 126, 186);"/></g><g><g transform="scale(0.65)"><switch><foreignObject style="overflow: visible; text-align: left;" pointer-events="none" width="154%" height="154%" requiredFeatures="http://www.w3.org/TR/SVG11/feature#Extensibility"><div xmlns="http://www.w3.org/1999/xhtml" style="display: flex; align-items: unsafe flex-start; justify-content: unsafe center; width: 543px; height: 1px; padding-top: 149px; margin-left: 135px;"><div style="box-sizing: border-box; font-size: 0; text-align: center; color: #147EBA; "><div style="display: inline-block; font-size: 20px; font-family: Helvetica; color: #147EBA; line-height: 1.2; pointer-events: all; white-space: normal; word-wrap: normal; ">Availability Zone 1</div></div></div></foreignObject><text x="407" y="169" fill="#147EBA" font-family="Helvetica" font-size="20px" text-anchor="middle">Availability Zone 1</text></switch></g></g></g><g data-cell-id="tEFLh3xXvXhqSFQfDNLb-13"><g><rect x="561.6" y="90.58" width="334.75" height="568.52" fill="none" stroke="#147eba" stroke-width="1.3" stroke-dasharray="3.9 3.9" pointer-events="all" style="stroke: rgb(20, 126, 186);"/></g><g><g transform="scale(0.65)"><switch><foreignObject style="overflow: visible; text-align: left;" pointer-events="none" width="154%" height="154%" requiredFeatures="http://www.w3.org/TR/SVG11/feature#Extensibility"><div xmlns="http://www.w3.org/1999/xhtml" style="display: flex; align-items: unsafe flex-start; justify-content: unsafe center; width: 513px; height: 1px; padding-top: 146px; margin-left: 865px;"><div style="box-sizing: border-box; font-size: 0; text-align: center; color: #147EBA; "><div style="display: inline-block; font-size: 20px; font-family: Helvetica; color: #147EBA; line-height: 1.2; pointer-events: all; white-space: normal; word-wrap: normal; ">Availability Zone 2</div></div></div></foreignObject><text x="1122" y="166" fill="#147EBA" font-family="Helvetica" font-size="20px" text-anchor="middle">Availability Zone 2</text></switch></g></g></g><g data-cell-id="tEFLh3xXvXhqSFQfDNLb-9"><g><path d="M 44.88 136.37 L 919.75 136.37 L 919.75 650.65 L 44.88 650.65 Z" fill="none" stroke="#8c4fff" stroke-width="1.3" stroke-miterlimit="10" pointer-events="none" style="stroke: rgb(140, 79, 255);"/><path d="M 44.88 136.37 L 44.88 152.62 L 61.13 152.62 L 61.13 136.37 Z M 52.02 139.21 C 52.87 139.21 53.66 139.47 54.18 139.98 C 54.48 140.27 54.72 140.6 54.9 140.98 C 55.14 140.8 55.47 140.72 55.85 140.74 C 56.57 140.77 57.13 141.43 57.25 142.36 C 57.85 142.41 58.26 142.72 58.47 143.3 L 58.09 143.44 C 57.91 142.97 57.6 142.76 57.06 142.76 C 56.95 142.76 56.86 142.68 56.86 142.57 C 56.8 141.62 56.29 141.16 55.83 141.14 C 55.45 141.12 55.16 141.23 54.99 141.46 C 54.94 141.52 54.87 141.55 54.79 141.54 C 54.72 141.53 54.66 141.48 54.63 141.41 C 54.47 140.96 54.23 140.59 53.9 140.27 C 53.17 139.56 51.83 139.41 50.64 139.9 C 49.8 140.25 49.26 141.13 49.26 142.15 C 49.26 142.26 49.27 142.43 49.28 142.53 C 49.3 142.64 49.23 142.73 49.13 142.76 C 48.19 142.99 47.72 143.55 47.72 144.43 C 47.72 144.47 47.72 144.51 47.72 144.55 C 47.78 145.57 48.42 146.22 49.34 146.22 L 52.59 146.22 L 52.59 146.62 L 49.34 146.62 C 48.2 146.62 47.39 145.8 47.32 144.58 C 47.31 144.54 47.31 144.48 47.31 144.43 C 47.31 143.41 47.85 142.71 48.86 142.41 C 48.86 142.32 48.85 142.22 48.85 142.15 C 48.85 140.96 49.49 139.93 50.48 139.53 C 50.99 139.32 51.51 139.22 52.02 139.21 Z M 56.06 142.76 C 56.09 142.76 56.11 142.77 56.14 142.78 L 58.56 143.85 C 58.63 143.88 58.68 143.95 58.68 144.03 L 58.68 147.03 C 58.68 147.08 58.69 148.35 57.87 149.19 C 57.41 149.65 56.79 149.89 56.03 149.89 C 55.26 149.89 54.64 149.65 54.19 149.19 C 53.38 148.35 53.4 147.08 53.4 147.02 L 53.4 144 C 53.4 143.91 53.45 143.84 53.53 143.81 L 55.98 142.78 C 56.01 142.77 56.03 142.76 56.06 142.76 Z M 56.06 143.19 L 53.81 144.13 L 53.81 147.03 C 53.81 147.04 53.79 148.19 54.48 148.91 C 54.86 149.29 55.37 149.48 56.03 149.48 C 56.68 149.48 57.2 149.29 57.58 148.9 C 58.28 148.19 58.28 147.04 58.28 147.03 L 58.28 144.16 Z M 56.06 143.89 C 56.09 143.89 56.11 143.89 56.14 143.91 L 57.74 144.59 C 57.82 144.62 57.86 144.7 57.86 144.78 L 57.86 147.43 C 57.79 148.02 57.31 149.08 56.03 149.08 C 54.78 149.08 54.3 148.02 54.22 147.46 L 54.22 144.78 C 54.22 144.7 54.27 144.62 54.34 144.59 L 55.98 143.9 C 56.01 143.89 56.03 143.89 56.06 143.89 Z M 55.86 144.4 L 54.62 144.91 L 54.62 147.43 C 54.63 147.46 54.8 148.56 55.86 148.67 Z M 56.26 144.4 L 56.26 148.66 C 57.3 148.52 57.45 147.46 57.46 147.41 L 57.46 144.91 Z" fill="#8c4fff" stroke="none" pointer-events="all" style="fill: rgb(140, 79, 255);"/></g><g><g transform="scale(0.65)"><switch><foreignObject style="overflow: visible; text-align: left;" pointer-events="none" width="154%" height="154%" requiredFeatures="http://www.w3.org/TR/SVG11/feature#Extensibility"><div xmlns="http://www.w3.org/1999/xhtml" style="display: flex; align-items: unsafe flex-start; justify-content: unsafe flex-start; width: 1314px; height: 1px; padding-top: 217px; margin-left: 101px;"><div style="box-sizing: border-box; font-size: 0; text-align: left; color: #AAB7B8; "><div style="display: inline-block; font-size: 20px; font-family: Helvetica; color: #AAB7B8; line-height: 1.2; pointer-events: all; white-space: normal; word-wrap: normal; ">VPC</div></div></div></foreignObject><text x="101" y="237" fill="light-dark(#AAB7B8, #b17dff)" font-family="Helvetica" font-size="20px">VPC</text></switch></g></g></g><g data-cell-id="tEFLh3xXvXhqSFQfDNLb-15"><g><path d="M 113.46 163.62 L 413.36 163.62 L 413.36 327.77 L 113.46 327.77 Z" fill="#f2f6e8" stroke="none" pointer-events="none" style="fill: rgb(242, 246, 232);"/><path d="M 113.46 163.62 L 129.71 163.62 L 129.71 179.87 L 113.46 179.87 Z M 121.6 165.71 C 120.87 165.7 120.17 165.97 119.63 166.47 C 119.1 166.94 118.8 167.61 118.79 168.32 L 118.79 169.97 L 117.29 169.97 C 117.23 169.97 117.17 170 117.13 170.04 C 117.09 170.09 117.06 170.14 117.06 170.2 L 117.06 177.54 C 117.06 177.67 117.17 177.78 117.29 177.78 L 125.88 177.78 C 126.01 177.78 126.12 177.67 126.12 177.54 L 126.12 170.21 C 126.12 170.15 126.09 170.09 126.05 170.05 C 126.01 170.01 125.95 169.98 125.89 169.98 L 124.39 169.98 L 124.39 168.36 C 124.39 167.65 124.09 166.98 123.58 166.5 C 123.05 165.99 122.34 165.71 121.6 165.71 Z M 121.6 166.17 C 122.21 166.16 122.81 166.4 123.26 166.82 C 123.68 167.22 123.93 167.77 123.93 168.36 L 123.93 169.98 L 119.24 169.98 L 119.24 168.33 C 119.25 167.75 119.5 167.2 119.93 166.81 C 120.39 166.39 120.98 166.16 121.6 166.17 Z M 117.52 170.44 L 125.66 170.44 L 125.65 177.31 L 117.52 177.31 Z M 121.59 171.9 C 120.92 171.89 120.36 172.39 120.3 173.06 C 120.24 173.73 120.7 174.33 121.36 174.44 L 121.36 176.25 L 121.82 176.25 L 121.82 174.45 C 122.43 174.33 122.87 173.8 122.88 173.18 C 122.88 172.48 122.3 171.9 121.59 171.9 Z M 121.52 172.36 C 121.54 172.36 121.57 172.36 121.59 172.36 C 121.81 172.36 122.02 172.45 122.17 172.6 C 122.33 172.76 122.41 172.97 122.41 173.18 C 122.41 173.4 122.33 173.61 122.17 173.77 C 122.02 173.92 121.81 174 121.59 174 C 121.29 174.03 121 173.89 120.84 173.64 C 120.67 173.38 120.65 173.06 120.8 172.79 C 120.94 172.53 121.22 172.36 121.52 172.36 Z" fill="#7aa116" stroke="none" pointer-events="all" style="fill: rgb(122, 161, 22);"/></g><g><g transform="scale(0.65)"><switch><foreignObject style="overflow: visible; text-align: left;" pointer-events="none" width="154%" height="154%" requiredFeatures="http://www.w3.org/TR/SVG11/feature#Extensibility"><div xmlns="http://www.w3.org/1999/xhtml" style="display: flex; align-items: unsafe flex-start; justify-content: unsafe flex-start; width: 429px; height: 1px; padding-top: 259px; margin-left: 207px;"><div style="box-sizing: border-box; font-size: 0; text-align: left; color: #248814; "><div style="display: inline-block; font-size: 20px; font-family: Helvetica; color: #248814; line-height: 1.2; pointer-events: all; white-space: normal; word-wrap: normal; ">Public subnet</div></div></div></foreignObject><text x="207" y="279" fill="#248814" font-family="Helvetica" font-size="20px">Public subnet</text></switch></g></g></g><g data-cell-id="tEFLh3xXvXhqSFQfDNLb-16"><g><path d="M 112.52 353.6 L 414.3 353.6 L 414.3 459.55 L 112.52 459.55 Z" fill="#e6f6f7" stroke="none" pointer-events="none" style="fill: rgb(230, 246, 247);"/><path d="M 112.52 353.6 L 128.77 353.6 L 128.77 369.85 L 112.52 369.85 Z M 120.66 355.69 C 119.93 355.68 119.22 355.96 118.69 356.45 C 118.16 356.92 117.85 357.6 117.85 358.31 L 117.85 359.96 L 116.35 359.96 C 116.29 359.95 116.23 359.98 116.19 360.03 C 116.14 360.07 116.12 360.13 116.12 360.19 L 116.12 367.53 C 116.12 367.66 116.22 367.76 116.35 367.76 L 124.94 367.76 C 125.07 367.76 125.17 367.66 125.17 367.53 L 125.17 360.2 C 125.18 360.14 125.15 360.08 125.11 360.03 C 125.07 359.99 125.01 359.96 124.95 359.97 L 123.45 359.97 L 123.45 358.34 C 123.44 357.64 123.15 356.96 122.63 356.48 C 122.1 355.97 121.4 355.69 120.66 355.69 Z M 120.66 356.15 C 121.27 356.15 121.86 356.38 122.31 356.8 C 122.74 357.2 122.99 357.76 122.99 358.34 L 122.99 359.97 L 118.29 359.97 L 118.3 358.32 C 118.31 357.73 118.56 357.18 118.99 356.79 C 119.44 356.37 120.04 356.15 120.66 356.15 Z M 116.58 360.42 L 124.71 360.42 L 124.71 367.3 L 116.58 367.3 Z M 120.65 361.88 C 119.98 361.87 119.42 362.38 119.35 363.05 C 119.29 363.71 119.75 364.31 120.41 364.43 L 120.41 366.24 L 120.88 366.24 L 120.88 364.43 C 121.49 364.32 121.93 363.79 121.93 363.17 C 121.93 362.46 121.36 361.89 120.65 361.88 Z M 120.58 362.35 C 120.6 362.34 120.63 362.35 120.65 362.35 C 120.87 362.35 121.08 362.43 121.23 362.59 C 121.38 362.74 121.47 362.95 121.47 363.17 C 121.47 363.39 121.39 363.6 121.23 363.75 C 121.08 363.9 120.87 363.99 120.65 363.99 C 120.35 364.01 120.06 363.87 119.89 363.62 C 119.73 363.37 119.71 363.04 119.85 362.78 C 120 362.51 120.27 362.35 120.58 362.35 Z" fill="#00a4a6" stroke="none" pointer-events="all" style="fill: rgb(0, 164, 166);"/></g><g><g transform="scale(0.65)"><switch><foreignObject style="overflow: visible; text-align: left;" pointer-events="none" width="154%" height="154%" requiredFeatures="http://www.w3.org/TR/SVG11/feature#Extensibility"><div xmlns="http://www.w3.org/1999/xhtml" style="display: flex; align-items: unsafe flex-start; justify-content: unsafe flex-start; width: 432px; height: 1px; padding-top: 551px; margin-left: 205px;"><div style="box-sizing: border-box; font-size: 0; text-align: left; color: #147EBA; "><div style="display: inline-block; font-size: 20px; font-family: Helvetica; color: #147EBA; line-height: 1.2; pointer-events: all; white-space: normal; word-wrap: normal; ">Private subnet 1</div></div></div></foreignObject><text x="205" y="571" fill="#147EBA" font-family="Helvetica" font-size="20px">Private subnet 1</text></switch></g></g></g><g data-cell-id="tEFLh3xXvXhqSFQfDNLb-25"><g><path d="M 580.69 510.25 L 882.47 510.25 L 882.47 616.2 L 580.69 616.2 Z" fill="#e6f6f7" stroke="none" pointer-events="none" style="fill: rgb(230, 246, 247);"/><path d="M 580.69 510.25 L 596.94 510.25 L 596.94 526.5 L 580.69 526.5 Z M 588.83 512.34 C 588.1 512.33 587.39 512.61 586.86 513.1 C 586.33 513.57 586.02 514.25 586.02 514.96 L 586.02 516.61 L 584.52 516.61 C 584.46 516.6 584.4 516.63 584.35 516.68 C 584.31 516.72 584.29 516.78 584.29 516.84 L 584.29 524.18 C 584.29 524.31 584.39 524.41 584.52 524.41 L 593.11 524.41 C 593.24 524.41 593.34 524.31 593.34 524.18 L 593.34 516.85 C 593.34 516.79 593.32 516.73 593.28 516.68 C 593.23 516.64 593.18 516.61 593.11 516.62 L 591.62 516.62 L 591.62 514.99 C 591.61 514.29 591.32 513.61 590.8 513.13 C 590.27 512.62 589.56 512.34 588.83 512.34 Z M 588.82 512.8 C 589.44 512.8 590.03 513.03 590.48 513.45 C 590.91 513.85 591.15 514.41 591.16 514.99 L 591.16 516.62 L 586.46 516.62 L 586.47 514.97 C 586.47 514.38 586.72 513.83 587.16 513.44 C 587.61 513.02 588.21 512.8 588.82 512.8 Z M 584.75 517.07 L 592.88 517.07 L 592.88 523.95 L 584.75 523.95 Z M 588.82 518.53 C 588.15 518.52 587.59 519.03 587.52 519.7 C 587.46 520.36 587.92 520.96 588.58 521.08 L 588.58 522.89 L 589.05 522.89 L 589.05 521.08 C 589.66 520.97 590.1 520.44 590.1 519.82 C 590.1 519.11 589.53 518.54 588.82 518.53 Z M 588.74 519 C 588.77 518.99 588.8 519 588.82 519 C 589.04 519 589.25 519.08 589.4 519.24 C 589.55 519.39 589.64 519.6 589.64 519.82 C 589.64 520.04 589.55 520.25 589.4 520.4 C 589.25 520.55 589.04 520.64 588.82 520.64 C 588.52 520.66 588.23 520.52 588.06 520.27 C 587.89 520.02 587.88 519.69 588.02 519.43 C 588.17 519.16 588.44 519 588.74 519 Z" fill="#00a4a6" stroke="none" pointer-events="all" style="fill: rgb(0, 164, 166);"/></g><g><g transform="scale(0.65)"><switch><foreignObject style="overflow: visible; text-align: left;" pointer-events="none" width="154%" height="154%" requiredFeatures="http://www.w3.org/TR/SVG11/feature#Extensibility"><div xmlns="http://www.w3.org/1999/xhtml" style="display: flex; align-items: unsafe flex-start; justify-content: unsafe flex-start; width: 432px; height: 1px; padding-top: 792px; margin-left: 925px;"><div style="box-sizing: border-box; font-size: 0; text-align: left; color: #147EBA; "><div style="display: inline-block; font-size: 20px; font-family: Helvetica; color: #147EBA; line-height: 1.2; pointer-events: all; white-space: normal; word-wrap: normal; ">Private subnet 3</div></div></div></foreignObject><text x="925" y="812" fill="#147EBA" font-family="Helvetica" font-size="20px">Private subnet 3</text></switch></g></g></g><g data-cell-id="tEFLh3xXvXhqSFQfDNLb-26"><g><path d="M 113.46 510.25 L 415.24 510.25 L 415.24 616.2 L 113.46 616.2 Z" fill="#e6f6f7" stroke="none" pointer-events="none" style="fill: rgb(230, 246, 247);"/><path d="M 113.46 510.25 L 129.71 510.25 L 129.71 526.5 L 113.46 526.5 Z M 121.6 512.34 C 120.87 512.33 120.17 512.61 119.63 513.1 C 119.1 513.57 118.8 514.25 118.79 514.96 L 118.79 516.61 L 117.29 516.61 C 117.23 516.6 117.17 516.63 117.13 516.68 C 117.09 516.72 117.06 516.78 117.06 516.84 L 117.06 524.18 C 117.06 524.31 117.17 524.41 117.29 524.41 L 125.88 524.41 C 126.01 524.41 126.12 524.31 126.12 524.18 L 126.12 516.85 C 126.12 516.79 126.09 516.73 126.05 516.68 C 126.01 516.64 125.95 516.61 125.89 516.62 L 124.39 516.62 L 124.39 514.99 C 124.39 514.29 124.09 513.61 123.58 513.13 C 123.04 512.62 122.34 512.34 121.6 512.34 Z M 121.6 512.8 C 122.21 512.8 122.81 513.03 123.26 513.45 C 123.68 513.85 123.93 514.41 123.93 514.99 L 123.93 516.62 L 119.24 516.62 L 119.24 514.97 C 119.25 514.38 119.5 513.83 119.93 513.44 C 120.39 513.02 120.98 512.8 121.6 512.8 Z M 117.52 517.07 L 125.66 517.07 L 125.65 523.95 L 117.52 523.95 Z M 121.59 518.53 C 120.92 518.52 120.36 519.03 120.3 519.7 C 120.24 520.36 120.7 520.96 121.36 521.08 L 121.36 522.89 L 121.82 522.89 L 121.82 521.08 C 122.43 520.97 122.87 520.44 122.88 519.82 C 122.87 519.11 122.3 518.54 121.59 518.53 Z M 121.52 519 C 121.54 518.99 121.57 519 121.59 519 C 121.81 519 122.02 519.08 122.17 519.24 C 122.33 519.39 122.41 519.6 122.41 519.82 C 122.41 520.04 122.33 520.25 122.17 520.4 C 122.02 520.55 121.81 520.64 121.59 520.64 C 121.29 520.66 121 520.52 120.83 520.27 C 120.67 520.02 120.65 519.69 120.8 519.43 C 120.94 519.16 121.22 519 121.52 519 Z" fill="#00a4a6" stroke="none" pointer-events="all" style="fill: rgb(0, 164, 166);"/></g><g><g transform="scale(0.65)"><switch><foreignObject style="overflow: visible; text-align: left;" pointer-events="none" width="154%" height="154%" requiredFeatures="http://www.w3.org/TR/SVG11/feature#Extensibility"><div xmlns="http://www.w3.org/1999/xhtml" style="display: flex; align-items: unsafe flex-start; justify-content: unsafe flex-start; width: 432px; height: 1px; padding-top: 792px; margin-left: 207px;"><div style="box-sizing: border-box; font-size: 0; text-align: left; color: #147EBA; "><div style="display: inline-block; font-size: 20px; font-family: Helvetica; color: #147EBA; line-height: 1.2; pointer-events: all; white-space: normal; word-wrap: normal; ">Private subnet 2</div></div></div></foreignObject><text x="207" y="812" fill="#147EBA" font-family="Helvetica" font-size="20px">Private subnet 2</text></switch></g></g></g><g data-cell-id="tEFLh3xXvXhqSFQfDNLb-30"><g><rect x="116.35" y="223.6" width="121.55" height="84.5" fill="none" stroke="#dd3522" stroke-width="0.65" pointer-events="all" style="stroke: rgb(221, 53, 34);"/></g><g><g transform="scale(0.65)"><switch><foreignObject style="overflow: visible; text-align: left;" pointer-events="none" width="154%" height="154%" requiredFeatures="http://www.w3.org/TR/SVG11/feature#Extensibility"><div xmlns="http://www.w3.org/1999/xhtml" style="display: flex; align-items: unsafe flex-start; justify-content: unsafe center; width: 185px; height: 1px; padding-top: 351px; margin-left: 180px;"><div style="box-sizing: border-box; font-size: 0; text-align: center; color: #DD3522; "><div style="display: inline-block; font-size: 20px; font-family: Helvetica; color: #DD3522; line-height: 1.2; pointer-events: all; white-space: normal; word-wrap: normal; ">Security group</div></div></div></foreignObject><text x="273" y="371" fill="#DD3522" font-family="Helvetica" font-size="20px" text-anchor="middle">Security group</text></switch></g></g></g><g data-cell-id="tEFLh3xXvXhqSFQfDNLb-33"><g><rect x="214.82" y="368.55" width="104.65" height="74.1" fill="none" stroke="#dd3522" stroke-width="0.65" pointer-events="all" style="stroke: rgb(221, 53, 34);"/></g><g><g transform="scale(0.65)"><switch><foreignObject style="overflow: visible; text-align: left;" pointer-events="none" width="154%" height="154%" requiredFeatures="http://www.w3.org/TR/SVG11/feature#Extensibility"><div xmlns="http://www.w3.org/1999/xhtml" style="display: flex; align-items: unsafe flex-start; justify-content: unsafe center; width: 159px; height: 1px; padding-top: 574px; margin-left: 332px;"><div style="box-sizing: border-box; font-size: 0; text-align: center; color: #DD3522; "><div style="display: inline-block; font-size: 20px; font-family: Helvetica; color: #DD3522; line-height: 1.2; pointer-events: all; white-space: normal; word-wrap: normal; ">Security group</div></div></div></foreignObject><text x="411" y="594" fill="#DD3522" font-family="Helvetica" font-size="20px" text-anchor="middle">Security group</text></switch></g></g></g><g data-cell-id="tEFLh3xXvXhqSFQfDNLb-32"><g><rect x="245.7" y="520.98" width="163.15" height="84.5" fill="none" stroke="#dd3522" stroke-width="0.65" pointer-events="all" style="stroke: rgb(221, 53, 34);"/></g><g><g transform="scale(0.65)"><switch><foreignObject style="overflow: visible; text-align: left;" pointer-events="none" width="154%" height="154%" requiredFeatures="http://www.w3.org/TR/SVG11/feature#Extensibility"><div xmlns="http://www.w3.org/1999/xhtml" style="display: flex; align-items: unsafe flex-start; justify-content: unsafe center; width: 249px; height: 1px; padding-top: 808px; margin-left: 379px;"><div style="box-sizing: border-box; font-size: 0; text-align: center; color: #DD3522; "><div style="display: inline-block; font-size: 20px; font-family: Helvetica; color: #DD3522; line-height: 1.2; pointer-events: all; white-space: normal; word-wrap: normal; ">Security group</div></div></div></foreignObject><text x="504" y="828" fill="#DD3522" font-family="Helvetica" font-size="20px" text-anchor="middle">Security group</text></switch></g></g></g><g data-cell-id="dQKSGRMoL7s1ueKJHOKg-15"><g><path d="M 274.63 424.04 L 274.62 474.18 Q 274.62 480.68 281.12 480.68 L 324.35 480.68 Q 330.85 480.68 330.85 487.18 L 330.85 532.15" fill="none" stroke="#000000" stroke-width="0.65" stroke-miterlimit="10" pointer-events="stroke" style="stroke: rgb(0, 0, 0);"/><path d="M 274.63 420.63 L 276.9 425.18 L 274.63 424.04 L 272.35 425.18 Z" fill="#000000" stroke="#000000" stroke-width="0.65" stroke-miterlimit="10" pointer-events="all" style="fill: rgb(0, 0, 0); stroke: rgb(0, 0, 0);"/><path d="M 330.85 535.57 L 328.57 531.02 L 330.85 532.15 L 333.13 531.02 Z" fill="#000000" stroke="#000000" stroke-width="0.65" stroke-miterlimit="10" pointer-events="all" style="fill: rgb(0, 0, 0); stroke: rgb(0, 0, 0);"/></g></g><g data-cell-id="dQKSGRMoL7s1ueKJHOKg-17"><g><path d="M 246.11 403.65 L 165.43 403.65 Q 158.93 403.65 152.43 403.62 L 66.8 403.25" fill="none" stroke="#000000" stroke-width="0.65" stroke-miterlimit="10" pointer-events="stroke" style="stroke: rgb(0, 0, 0);"/><path d="M 249.52 403.65 L 244.97 405.93 L 246.11 403.65 L 244.97 401.38 Z" fill="#000000" stroke="#000000" stroke-width="0.65" stroke-miterlimit="10" pointer-events="all" style="fill: rgb(0, 0, 0); stroke: rgb(0, 0, 0);"/></g></g><g data-cell-id="tEFLh3xXvXhqSFQfDNLb-36"><g><path d="M 250.25 387.4 L 282.75 387.4 L 282.75 419.9 L 250.25 419.9 Z" fill="#ed7100" stroke="none" pointer-events="all" style="fill: rgb(237, 113, 0);"/><path d="M 261.54 408.61 L 261.54 398.69 L 271.46 398.69 L 271.46 408.61 Z M 261.06 409.56 L 271.94 409.56 C 272.2 409.56 272.41 409.35 272.41 409.09 L 272.41 398.21 C 272.41 397.95 272.2 397.74 271.94 397.74 L 261.06 397.74 C 260.8 397.74 260.59 397.95 260.59 398.21 L 260.59 409.09 C 260.59 409.35 260.8 409.56 261.06 409.56 Z M 257.75 412.4 L 257.75 394.9 L 275.25 394.9 L 275.25 412.4 Z M 279.5 395.85 L 279.5 394.9 L 276.19 394.9 L 276.19 394.43 C 276.19 394.17 275.98 393.96 275.72 393.96 L 275.25 393.96 L 275.25 390.65 L 274.3 390.65 L 274.3 393.96 L 271.94 393.96 L 271.94 390.65 L 270.99 390.65 L 270.99 393.96 L 268.63 393.96 L 268.63 390.65 L 267.68 390.65 L 267.68 393.96 L 265.32 393.96 L 265.32 390.65 L 264.37 390.65 L 264.37 393.96 L 262.01 393.96 L 262.01 390.65 L 261.06 390.65 L 261.06 393.96 L 258.7 393.96 L 258.7 390.65 L 257.75 390.65 L 257.75 393.96 L 257.28 393.96 C 257.02 393.96 256.81 394.17 256.81 394.43 L 256.81 394.9 L 253.5 394.9 L 253.5 395.85 L 256.81 395.85 L 256.81 398.21 L 253.5 398.21 L 253.5 399.16 L 256.81 399.16 L 256.81 401.52 L 253.5 401.52 L 253.5 402.47 L 256.81 402.47 L 256.81 404.83 L 253.5 404.83 L 253.5 405.78 L 256.81 405.78 L 256.81 408.14 L 253.5 408.14 L 253.5 409.09 L 256.81 409.09 L 256.81 411.45 L 253.5 411.45 L 253.5 412.4 L 256.81 412.4 L 256.81 412.87 C 256.81 413.13 257.02 413.34 257.28 413.34 L 257.75 413.34 L 257.75 416.65 L 258.7 416.65 L 258.7 413.34 L 261.06 413.34 L 261.06 416.65 L 262.01 416.65 L 262.01 413.34 L 264.37 413.34 L 264.37 416.65 L 265.32 416.65 L 265.32 413.34 L 267.68 413.34 L 267.68 416.65 L 268.63 416.65 L 268.63 413.34 L 270.99 413.34 L 270.99 416.65 L 271.94 416.65 L 271.94 413.34 L 274.3 413.34 L 274.3 416.65 L 275.25 416.65 L 275.25 413.34 L 275.72 413.34 C 275.98 413.34 276.19 413.13 276.19 412.87 L 276.19 412.4 L 279.5 412.4 L 279.5 411.45 L 276.19 411.45 L 276.19 409.09 L 279.5 409.09 L 279.5 408.14 L 276.19 408.14 L 276.19 405.78 L 279.5 405.78 L 279.5 404.83 L 276.19 404.83 L 276.19 402.47 L 279.5 402.47 L 279.5 401.52 L 276.19 401.52 L 276.19 399.16 L 279.5 399.16 L 279.5 398.21 L 276.19 398.21 L 276.19 395.85 Z" fill="#ffffff" stroke="none" pointer-events="all" style="fill: rgb(255, 255, 255);"/></g><g><g transform="scale(0.65)"><switch><foreignObject style="overflow: visible; text-align: left;" pointer-events="none" width="154%" height="154%" requiredFeatures="http://www.w3.org/TR/SVG11/feature#Extensibility"><div xmlns="http://www.w3.org/1999/xhtml" style="display: flex; align-items: unsafe flex-start; justify-content: unsafe center; width: 1px; height: 1px; padding-top: 653px; margin-left: 410px;"><div style="box-sizing: border-box; font-size: 0; text-align: center; color: #232F3E; "><div style="display: inline-block; font-size: 20px; font-family: Helvetica; color: #232F3E; line-height: 1.2; pointer-events: all; white-space: nowrap; ">App Server</div></div></div></foreignObject><text x="410" y="673" fill="#232F3E" font-family="Helvetica" font-size="20px" text-anchor="middle">App S...</text></switch></g></g></g><g data-cell-id="dQKSGRMoL7s1ueKJHOKg-16"><g><path d="M 154.46 270.73 L 74.1 270.73 Q 67.6 270.73 67.6 277.23 L 67.6 555.75 Q 67.6 562.25 74.1 562.25 L 304.61 562.25" fill="none" stroke="#000000" stroke-width="0.65" stroke-miterlimit="10" pointer-events="stroke" style="stroke: rgb(0, 0, 0);"/><path d="M 157.87 270.73 L 153.32 273 L 154.46 270.73 L 153.32 268.45 Z" fill="#000000" stroke="#000000" stroke-width="0.65" stroke-miterlimit="10" pointer-events="all" style="fill: rgb(0, 0, 0); stroke: rgb(0, 0, 0);"/><path d="M 308.02 562.25 L 303.47 564.52 L 304.61 562.25 L 303.47 559.98 Z" fill="#000000" stroke="#000000" stroke-width="0.65" stroke-miterlimit="10" pointer-events="all" style="fill: rgb(0, 0, 0); stroke: rgb(0, 0, 0);"/></g></g><g data-cell-id="tEFLh3xXvXhqSFQfDNLb-35"><g><path d="M 158.6 253.5 L 193.05 253.5 L 193.05 287.95 L 158.6 287.95 Z" fill="#ed7100" stroke="none" pointer-events="all" style="fill: rgb(237, 113, 0);"/><path d="M 170.56 275.99 L 170.56 265.46 L 181.09 265.46 L 181.09 275.99 Z M 170.06 276.99 L 181.59 276.99 C 181.86 276.99 182.09 276.76 182.09 276.49 L 182.09 264.96 C 182.09 264.69 181.86 264.46 181.59 264.46 L 170.06 264.46 C 169.79 264.46 169.56 264.69 169.56 264.96 L 169.56 276.49 C 169.56 276.76 169.79 276.99 170.06 276.99 Z M 166.55 280 L 166.55 261.45 L 185.1 261.45 L 185.1 280 Z M 189.6 262.46 L 189.6 261.45 L 186.1 261.45 L 186.1 260.95 C 186.1 260.68 185.87 260.45 185.6 260.45 L 185.1 260.45 L 185.1 256.95 L 184.09 256.95 L 184.09 260.45 L 181.59 260.45 L 181.59 256.95 L 180.59 256.95 L 180.59 260.45 L 178.08 260.45 L 178.08 256.95 L 177.08 256.95 L 177.08 260.45 L 174.57 260.45 L 174.57 256.95 L 173.57 256.95 L 173.57 260.45 L 171.06 260.45 L 171.06 256.95 L 170.06 256.95 L 170.06 260.45 L 167.56 260.45 L 167.56 256.95 L 166.55 256.95 L 166.55 260.45 L 166.05 260.45 C 165.78 260.45 165.55 260.68 165.55 260.95 L 165.55 261.45 L 162.05 261.45 L 162.05 262.46 L 165.55 262.46 L 165.55 264.96 L 162.05 264.96 L 162.05 265.96 L 165.55 265.96 L 165.55 268.47 L 162.05 268.47 L 162.05 269.47 L 165.55 269.47 L 165.55 271.98 L 162.05 271.98 L 162.05 272.98 L 165.55 272.98 L 165.55 275.49 L 162.05 275.49 L 162.05 276.49 L 165.55 276.49 L 165.55 278.99 L 162.05 278.99 L 162.05 280 L 165.55 280 L 165.55 280.5 C 165.55 280.77 165.78 281 166.05 281 L 166.55 281 L 166.55 284.51 L 167.56 284.51 L 167.56 281 L 170.06 281 L 170.06 284.51 L 171.06 284.51 L 171.06 281 L 173.57 281 L 173.57 284.51 L 174.57 284.51 L 174.57 281 L 177.08 281 L 177.08 284.51 L 178.08 284.51 L 178.08 281 L 180.59 281 L 180.59 284.51 L 181.59 284.51 L 181.59 281 L 184.09 281 L 184.09 284.51 L 185.1 284.51 L 185.1 281 L 185.6 281 C 185.87 281 186.1 280.77 186.1 280.5 L 186.1 280 L 189.6 280 L 189.6 278.99 L 186.1 278.99 L 186.1 276.49 L 189.6 276.49 L 189.6 275.49 L 186.1 275.49 L 186.1 272.98 L 189.6 272.98 L 189.6 271.98 L 186.1 271.98 L 186.1 269.47 L 189.6 269.47 L 189.6 268.47 L 186.1 268.47 L 186.1 265.96 L 189.6 265.96 L 189.6 264.96 L 186.1 264.96 L 186.1 262.46 Z" fill="#ffffff" stroke="none" pointer-events="all" style="fill: rgb(255, 255, 255);"/></g><g><g transform="scale(0.65)"><switch><foreignObject style="overflow: visible; text-align: left;" pointer-events="none" width="154%" height="154%" requiredFeatures="http://www.w3.org/TR/SVG11/feature#Extensibility"><div xmlns="http://www.w3.org/1999/xhtml" style="display: flex; align-items: unsafe flex-start; justify-content: unsafe center; width: 1px; height: 1px; padding-top: 450px; margin-left: 270px;"><div style="box-sizing: border-box; font-size: 0; text-align: center; color: #232F3E; "><div style="display: inline-block; font-size: 20px; font-family: Helvetica; color: #232F3E; line-height: 1.2; pointer-events: all; white-space: nowrap; ">Bastion Host</div></div></div></foreignObject><text x="270" y="470" fill="#232F3E" font-family="Helvetica" font-size="20px" text-anchor="middle">Basti...</text></switch></g></g></g><g data-cell-id="tEFLh3xXvXhqSFQfDNLb-34"><g><path d="M 328.57 187.2 L 361.72 187.2 L 361.72 220.35 L 328.57 220.35 Z" fill="#ed7100" stroke="none" pointer-events="all" style="fill: rgb(237, 113, 0);"/><path d="M 340.09 208.84 L 340.09 198.71 L 350.21 198.71 L 350.21 208.84 Z M 339.6 209.8 L 350.7 209.8 C 350.96 209.8 351.18 209.59 351.18 209.32 L 351.18 198.23 C 351.18 197.96 350.96 197.75 350.7 197.75 L 339.6 197.75 C 339.34 197.75 339.12 197.96 339.12 198.23 L 339.12 209.32 C 339.12 209.59 339.34 209.8 339.6 209.8 Z M 336.23 212.7 L 336.23 194.85 L 354.07 194.85 L 354.07 212.7 Z M 358.41 195.82 L 358.41 194.85 L 355.03 194.85 L 355.03 194.37 C 355.03 194.11 354.82 193.89 354.55 193.89 L 354.07 193.89 L 354.07 190.52 L 353.11 190.52 L 353.11 193.89 L 350.7 193.89 L 350.7 190.52 L 349.73 190.52 L 349.73 193.89 L 347.32 193.89 L 347.32 190.52 L 346.36 190.52 L 346.36 193.89 L 343.94 193.89 L 343.94 190.52 L 342.98 190.52 L 342.98 193.89 L 340.57 193.89 L 340.57 190.52 L 339.6 190.52 L 339.6 193.89 L 337.19 193.89 L 337.19 190.52 L 336.23 190.52 L 336.23 193.89 L 335.75 193.89 C 335.48 193.89 335.27 194.11 335.27 194.37 L 335.27 194.85 L 331.89 194.85 L 331.89 195.82 L 335.27 195.82 L 335.27 198.23 L 331.89 198.23 L 331.89 199.19 L 335.27 199.19 L 335.27 201.61 L 331.89 201.61 L 331.89 202.57 L 335.27 202.57 L 335.27 204.98 L 331.89 204.98 L 331.89 205.94 L 335.27 205.94 L 335.27 208.36 L 331.89 208.36 L 331.89 209.32 L 335.27 209.32 L 335.27 211.73 L 331.89 211.73 L 331.89 212.7 L 335.27 212.7 L 335.27 213.18 C 335.27 213.44 335.48 213.66 335.75 213.66 L 336.23 213.66 L 336.23 217.03 L 337.19 217.03 L 337.19 213.66 L 339.6 213.66 L 339.6 217.03 L 340.57 217.03 L 340.57 213.66 L 342.98 213.66 L 342.98 217.03 L 343.94 217.03 L 343.94 213.66 L 346.36 213.66 L 346.36 217.03 L 347.32 217.03 L 347.32 213.66 L 349.73 213.66 L 349.73 217.03 L 350.7 217.03 L 350.7 213.66 L 353.11 213.66 L 353.11 217.03 L 354.07 217.03 L 354.07 213.66 L 354.55 213.66 C 354.82 213.66 355.03 213.44 355.03 213.18 L 355.03 212.7 L 358.41 212.7 L 358.41 211.73 L 355.03 211.73 L 355.03 209.32 L 358.41 209.32 L 358.41 208.36 L 355.03 208.36 L 355.03 205.94 L 358.41 205.94 L 358.41 204.98 L 355.03 204.98 L 355.03 202.57 L 358.41 202.57 L 358.41 201.61 L 355.03 201.61 L 355.03 199.19 L 358.41 199.19 L 358.41 198.23 L 355.03 198.23 L 355.03 195.82 Z" fill="#ffffff" stroke="none" pointer-events="all" style="fill: rgb(255, 255, 255);"/></g><g><g transform="scale(0.65)"><switch><foreignObject style="overflow: visible; text-align: left;" pointer-events="none" width="154%" height="154%" requiredFeatures="http://www.w3.org/TR/SVG11/feature#Extensibility"><div xmlns="http://www.w3.org/1999/xhtml" style="display: flex; align-items: unsafe flex-start; justify-content: unsafe center; width: 1px; height: 1px; padding-top: 346px; margin-left: 531px;"><div style="box-sizing: border-box; font-size: 0; text-align: center; color: #232F3E; "><div style="display: inline-block; font-size: 20px; font-family: Helvetica; color: #232F3E; line-height: 1.2; pointer-events: all; white-space: nowrap; ">Web Server</div></div></div></foreignObject><text x="531" y="366" fill="#232F3E" font-family="Helvetica" font-size="20px" text-anchor="middle">Web S...</text></switch></g></g></g><g data-cell-id="tEFLh3xXvXhqSFQfDNLb-37"><g><rect x="313.95" y="541.45" width="33.8" height="33.8" fill="none" stroke="none" pointer-events="all"/><path d="M 328.73 559.45 C 328.54 559.45 328.31 559.43 328.04 559.37 C 327.77 559.32 327.52 559.25 327.31 559.17 L 327.31 560.08 C 327.49 560.19 327.72 560.27 328 560.33 C 328.27 560.4 328.54 560.43 328.82 560.43 C 329.44 560.43 329.94 560.27 330.29 559.95 C 330.65 559.62 330.83 559.19 330.83 558.63 C 330.83 558.35 330.79 558.11 330.7 557.91 C 330.62 557.71 330.49 557.53 330.31 557.36 C 330.13 557.2 329.89 557.04 329.59 556.87 L 329.12 556.62 C 328.87 556.48 328.69 556.35 328.6 556.24 C 328.51 556.12 328.47 555.97 328.47 555.79 C 328.47 555.58 328.54 555.41 328.68 555.29 C 328.82 555.17 329.01 555.1 329.25 555.1 C 329.61 555.1 330.03 555.19 330.5 555.37 L 330.5 554.44 C 330.04 554.23 329.59 554.13 329.13 554.13 C 328.76 554.13 328.44 554.2 328.16 554.34 C 327.88 554.48 327.65 554.69 327.49 554.95 C 327.33 555.22 327.25 555.53 327.25 555.88 C 327.25 556.26 327.34 556.59 327.53 556.86 C 327.71 557.12 328.02 557.37 328.45 557.61 L 328.92 557.86 C 329.16 557.99 329.33 558.11 329.43 558.24 C 329.53 558.36 329.58 558.52 329.58 558.7 C 329.58 558.94 329.51 559.13 329.36 559.26 C 329.22 559.39 329.01 559.45 328.73 559.45 Z M 325.29 557.19 C 325.29 556.5 325.2 556 325.02 555.68 C 324.84 555.35 324.55 555.19 324.16 555.19 L 323.66 555.19 L 323.66 559.37 L 324.17 559.37 C 324.55 559.37 324.83 559.2 325.02 558.87 C 325.2 558.55 325.29 558.04 325.29 557.36 Z M 325.97 555.03 C 326.35 555.54 326.55 556.29 326.55 557.27 C 326.55 558.27 326.36 559.02 325.97 559.53 C 325.59 560.04 325.03 560.3 324.3 560.3 L 322.44 560.3 L 322.44 554.26 L 324.26 554.26 C 325.01 554.26 325.58 554.52 325.97 555.03 Z M 320.25 556.16 C 320.25 555.83 320.19 555.59 320.07 555.42 C 319.95 555.25 319.78 555.17 319.55 555.17 L 318.98 555.17 L 318.98 557.15 L 319.55 557.15 C 319.78 557.15 319.95 557.07 320.07 556.9 C 320.19 556.73 320.25 556.48 320.25 556.16 Z M 320.55 557.88 L 321.77 560.3 L 320.51 560.3 L 319.46 558.06 L 318.98 558.06 L 318.98 560.3 L 317.79 560.3 L 317.79 554.26 L 319.7 554.26 C 320.23 554.26 320.66 554.43 320.98 554.77 C 321.29 555.11 321.45 555.57 321.45 556.16 C 321.45 556.57 321.37 556.92 321.22 557.21 C 321.06 557.51 320.84 557.73 320.55 557.88 Z M 344.36 551.58 L 344.36 548.32 C 344.36 547.89 344.27 547.57 344.1 547.35 C 343.92 547.13 343.66 547.02 343.33 547.02 C 342.9 547.02 342.46 547.19 341.99 547.53 L 341.9 547.13 L 340.92 547.13 L 340.92 551.58 L 342.11 551.58 L 342.11 548.13 C 342.33 547.99 342.53 547.92 342.71 547.92 C 342.88 547.92 342.99 547.98 343.06 548.1 C 343.13 548.21 343.17 548.4 343.17 548.66 L 343.17 551.58 Z M 338.89 549.36 C 338.89 548.87 338.84 548.5 338.75 548.27 C 338.65 548.04 338.49 547.92 338.28 547.92 C 338.07 547.92 337.91 548.04 337.81 548.27 C 337.72 548.5 337.67 548.87 337.67 549.36 C 337.67 549.86 337.72 550.22 337.81 550.45 C 337.91 550.68 338.07 550.79 338.28 550.79 C 338.49 550.79 338.65 550.68 338.75 550.45 C 338.84 550.22 338.89 549.86 338.89 549.36 Z M 339.61 547.63 C 339.93 548.03 340.08 548.61 340.08 549.36 C 340.08 550.11 339.93 550.68 339.61 551.09 C 339.3 551.49 338.86 551.7 338.28 551.7 C 337.71 551.7 337.26 551.49 336.95 551.09 C 336.63 550.68 336.48 550.11 336.48 549.36 C 336.48 548.61 336.63 548.03 336.95 547.63 C 337.26 547.22 337.71 547.02 338.28 547.02 C 338.86 547.02 339.3 547.22 339.61 547.63 Z M 332.84 551.58 L 335.94 551.58 L 335.94 550.67 L 334.1 550.67 L 335.9 547.98 L 335.9 547.13 L 332.91 547.13 L 332.91 548.05 L 334.65 548.05 L 332.84 550.74 Z M 331.03 550.58 L 331.03 549.73 C 330.9 549.69 330.75 549.67 330.58 549.67 C 330.41 549.67 330.28 549.72 330.19 549.83 C 330.1 549.93 330.05 550.09 330.05 550.29 C 330.05 550.47 330.09 550.61 330.16 550.71 C 330.23 550.81 330.33 550.86 330.45 550.86 C 330.65 550.86 330.84 550.77 331.03 550.58 Z M 330.67 551.55 C 330.49 551.65 330.3 551.7 330.1 551.7 C 329.74 551.7 329.46 551.58 329.25 551.34 C 329.04 551.11 328.94 550.79 328.94 550.37 C 328.94 549.94 329.06 549.59 329.32 549.34 C 329.58 549.09 329.92 548.96 330.36 548.96 C 330.54 548.96 330.76 549 331.03 549.07 L 331.03 548.66 C 331.03 548.36 330.99 548.16 330.91 548.05 C 330.83 547.94 330.69 547.89 330.47 547.89 C 330.12 547.89 329.7 547.98 329.19 548.17 L 329.19 547.37 C 329.36 547.26 329.58 547.18 329.85 547.11 C 330.12 547.05 330.4 547.02 330.69 547.02 C 331.19 547.02 331.56 547.13 331.79 547.36 C 332.01 547.59 332.13 547.96 332.13 548.46 L 332.13 551.58 L 331.2 551.58 L 331.1 551.18 C 331 551.33 330.86 551.46 330.67 551.55 Z M 328.09 551.58 L 328.09 548.32 C 328.09 547.9 328 547.58 327.83 547.35 C 327.66 547.13 327.41 547.02 327.08 547.02 C 326.67 547.02 326.23 547.19 325.76 547.55 C 325.59 547.19 325.3 547.02 324.89 547.02 C 324.48 547.02 324.04 547.19 323.58 547.53 L 323.48 547.13 L 322.5 547.13 L 322.5 551.58 L 323.7 551.58 L 323.7 548.13 C 323.91 547.99 324.1 547.92 324.27 547.92 C 324.42 547.92 324.54 547.98 324.6 548.1 C 324.67 548.21 324.7 548.4 324.7 548.65 L 324.7 551.58 L 325.9 551.58 L 325.9 548.33 L 325.9 548.23 C 325.9 548.19 325.89 548.16 325.89 548.13 C 326.1 547.99 326.29 547.92 326.46 547.92 C 326.62 547.92 326.73 547.98 326.8 548.1 C 326.86 548.21 326.9 548.4 326.9 548.65 L 326.9 551.58 Z M 320.1 549.28 L 319.55 546.77 L 319.02 549.28 Z M 321.94 551.58 L 320.6 551.58 L 320.28 550.15 L 318.84 550.15 L 318.53 551.58 L 317.25 551.58 L 318.92 545.54 L 320.27 545.54 Z M 346.21 563 L 346.21 560.29 C 344.88 561.01 342.87 561.39 340.86 561.39 C 338.86 561.39 336.84 561.01 335.51 560.29 L 335.51 563 C 335.51 563.49 337.33 564.62 340.86 564.62 C 344.39 564.62 346.21 563.49 346.21 563 Z M 346.21 567.69 L 346.21 565.06 C 344.88 565.78 342.87 566.16 340.86 566.16 C 338.86 566.16 336.84 565.78 335.51 565.06 L 335.51 567.69 C 335.51 568.17 337.33 569.3 340.86 569.3 C 344.39 569.3 346.21 568.17 346.21 567.69 Z M 346.21 571.87 L 346.21 569.74 C 344.88 570.47 342.87 570.84 340.86 570.84 C 338.86 570.84 336.84 570.47 335.51 569.74 L 335.51 571.87 C 335.51 572.35 337.33 573.49 340.86 573.49 C 344.39 573.49 346.21 572.35 346.21 571.87 Z M 335.51 558.24 C 335.51 558.72 337.33 559.85 340.86 559.85 C 344.39 559.85 346.21 558.72 346.21 558.24 C 346.21 557.75 344.39 556.62 340.86 556.62 C 337.33 556.62 335.51 557.75 335.51 558.24 Z M 347.75 558.24 L 347.75 571.87 C 347.75 573.94 344.28 575.02 340.86 575.02 C 337.44 575.02 333.98 573.94 333.98 571.87 L 333.98 558.24 C 333.98 556.17 337.44 555.09 340.86 555.09 C 344.28 555.09 347.75 556.17 347.75 558.24 Z M 318.37 573.67 L 333.49 573.67 L 333.49 575.21 L 318.37 575.21 C 315.93 575.21 313.95 573.23 313.95 570.79 L 313.95 545.91 C 313.95 543.48 315.93 541.49 318.37 541.49 L 343.24 541.49 C 345.68 541.49 347.66 543.48 347.66 545.91 L 347.66 555.67 L 346.13 555.67 L 346.13 545.91 C 346.13 544.32 344.83 543.03 343.24 543.03 L 318.37 543.03 C 316.78 543.03 315.49 544.32 315.49 545.91 L 315.49 570.79 C 315.49 572.38 316.78 573.67 318.37 573.67 Z" fill="#c925d1" stroke="none" pointer-events="all" style="fill: rgb(201, 37, 209);"/></g><g><g transform="scale(0.65)"><switch><foreignObject style="overflow: visible; text-align: left;" pointer-events="none" width="154%" height="154%" requiredFeatures="http://www.w3.org/TR/SVG11/feature#Extensibility"><div xmlns="http://www.w3.org/1999/xhtml" style="display: flex; align-items: unsafe flex-start; justify-content: unsafe center; width: 1px; height: 1px; padding-top: 892px; margin-left: 509px;"><div style="box-sizing: border-box; font-size: 0; text-align: center; color: #232F3E; "><div style="display: inline-block; font-size: 20px; font-family: Helvetica; color: #232F3E; line-height: 1.2; pointer-events: all; white-space: nowrap; ">Databse Server Primary</div></div></div></foreignObject><text x="509" y="912" fill="#232F3E" font-family="Helvetica" font-size="20px" text-anchor="middle">Datab...</text></switch></g></g></g><g data-cell-id="tEFLh3xXvXhqSFQfDNLb-39"><g><rect x="250.57" y="239.2" width="33.15" height="33.15" fill="none" stroke="none" pointer-events="all"/><path d="M 259.33 264.75 L 259.33 262.62 L 260.67 263.69 Z M 259.05 260.46 C 258.82 260.28 258.51 260.24 258.25 260.37 C 257.99 260.5 257.83 260.76 257.83 261.05 L 257.83 266.32 C 257.83 266.61 257.99 266.88 258.25 267 C 258.36 267.05 258.47 267.08 258.58 267.08 C 258.75 267.08 258.91 267.02 259.05 266.91 L 262.35 264.27 C 262.53 264.13 262.63 263.91 262.63 263.69 C 262.63 263.46 262.53 263.24 262.35 263.1 Z M 277.13 257.91 L 277.13 254.96 L 278.61 256.43 Z M 280.21 255.9 L 276.91 252.61 C 276.7 252.39 276.37 252.32 276.09 252.44 C 275.81 252.56 275.63 252.83 275.63 253.14 L 275.63 255.68 L 269.88 255.68 L 269.88 248.52 C 269.88 248.11 269.54 247.77 269.13 247.77 L 263.33 247.77 L 263.33 249.28 L 268.37 249.28 L 268.37 255.68 L 263.19 255.68 L 263.19 257.19 L 268.37 257.19 L 268.37 263.59 L 263.33 263.59 L 263.33 265.1 L 269.13 265.1 C 269.54 265.1 269.88 264.76 269.88 264.34 L 269.88 257.19 L 275.63 257.19 L 275.63 259.73 C 275.63 260.03 275.81 260.31 276.09 260.43 C 276.18 260.47 276.28 260.48 276.38 260.48 C 276.57 260.48 276.77 260.41 276.91 260.26 L 280.21 256.97 C 280.5 256.67 280.5 256.2 280.21 255.9 Z M 259.33 257.5 L 259.33 255.36 L 260.67 256.43 Z M 259.05 253.21 C 258.82 253.03 258.51 252.99 258.25 253.12 C 257.99 253.24 257.83 253.51 257.83 253.8 L 257.83 259.07 C 257.83 259.36 257.99 259.62 258.25 259.75 C 258.36 259.8 258.47 259.82 258.58 259.82 C 258.75 259.82 258.91 259.77 259.05 259.66 L 262.35 257.02 C 262.53 256.88 262.63 256.66 262.63 256.43 C 262.63 256.2 262.53 255.99 262.35 255.85 Z M 259.33 249.59 L 259.33 247.45 L 260.67 248.52 Z M 259.05 245.3 C 258.82 245.12 258.51 245.08 258.25 245.21 C 257.99 245.33 257.83 245.6 257.83 245.89 L 257.83 251.16 C 257.83 251.45 257.99 251.71 258.25 251.84 C 258.36 251.89 258.47 251.91 258.58 251.91 C 258.75 251.91 258.91 251.86 259.05 251.75 L 262.35 249.11 C 262.53 248.97 262.63 248.75 262.63 248.52 C 262.63 248.29 262.53 248.08 262.35 247.94 Z M 267.15 270.84 C 258.84 270.84 252.08 264.08 252.08 255.77 C 252.08 247.47 258.84 240.71 267.15 240.71 C 275.46 240.71 282.22 247.47 282.22 255.77 C 282.22 264.08 275.46 270.84 267.15 270.84 Z M 267.15 239.2 C 258.01 239.2 250.57 246.63 250.57 255.77 C 250.57 264.91 258.01 272.35 267.15 272.35 C 276.29 272.35 283.72 264.91 283.72 255.77 C 283.72 246.63 276.29 239.2 267.15 239.2 Z" fill="#8c4fff" stroke="none" pointer-events="all" style="fill: rgb(140, 79, 255);"/></g></g><g data-cell-id="tEFLh3xXvXhqSFQfDNLb-38"><g><rect x="476.45" y="105.3" width="50.52" height="50.52" fill="none" stroke="none" pointer-events="all"/><path d="M 512.61 143.47 L 510.89 143.47 L 510.89 123.14 C 510.89 122.68 510.62 122.27 510.21 122.09 L 510.11 122.04 C 507.79 121 505.4 119.92 501.96 119.92 C 498.37 119.92 495.73 121.08 493.13 122.37 C 492.74 122.56 492.49 122.96 492.49 123.4 L 492.49 143.47 L 490.81 143.47 L 490.81 121.77 C 493.61 119.49 497.64 118.19 501.98 118.19 C 506 118.19 509.84 119.34 512.61 121.35 Z M 501.98 115.89 C 496.88 115.89 492.12 117.52 488.89 120.37 C 488.65 120.59 488.5 120.9 488.5 121.23 L 488.5 144.62 C 488.5 145.26 489.02 145.77 489.66 145.77 L 493.64 145.77 C 494.28 145.77 494.79 145.26 494.79 144.62 L 494.79 124.12 C 497 123.05 499.14 122.22 501.96 122.22 C 504.65 122.22 506.6 122.99 508.59 123.88 L 508.59 144.62 C 508.59 145.26 509.1 145.77 509.74 145.77 L 513.76 145.77 C 514.4 145.77 514.91 145.26 514.91 144.62 L 514.91 120.78 C 514.91 120.43 514.75 120.1 514.48 119.88 C 511.29 117.35 506.73 115.89 501.98 115.89 Z M 501.71 153.52 C 489.05 153.52 478.75 143.22 478.75 130.56 C 478.75 117.9 489.05 107.6 501.71 107.6 C 514.37 107.6 524.67 117.9 524.67 130.56 C 524.67 143.22 514.37 153.52 501.71 153.52 Z M 501.71 105.3 C 487.78 105.3 476.45 116.63 476.45 130.56 C 476.45 144.49 487.78 155.82 501.71 155.82 C 515.64 155.82 526.97 144.49 526.97 130.56 C 526.97 116.63 515.64 105.3 501.71 105.3 Z" fill="#8c4fff" stroke="none" pointer-events="all" style="fill: rgb(140, 79, 255);"/></g></g><g data-cell-id="dQKSGRMoL7s1ueKJHOKg-13"><g><path d="M 467.11 130.49 L 359.94 130.49 Q 353.44 130.49 353.44 136.99 L 353.44 183.06" fill="none" stroke="#000000" stroke-width="0.65" stroke-miterlimit="10" pointer-events="stroke" style="stroke: rgb(0, 0, 0);"/><path d="M 470.52 130.49 L 465.97 132.76 L 467.11 130.49 L 465.97 128.21 Z" fill="#000000" stroke="#000000" stroke-width="0.65" stroke-miterlimit="10" pointer-events="all" style="fill: rgb(0, 0, 0); stroke: rgb(0, 0, 0);"/><path d="M 353.44 186.47 L 351.16 181.92 L 353.44 183.06 L 355.71 181.92 Z" fill="#000000" stroke="#000000" stroke-width="0.65" stroke-miterlimit="10" pointer-events="all" style="fill: rgb(0, 0, 0); stroke: rgb(0, 0, 0);"/></g></g><g data-cell-id="dQKSGRMoL7s1ueKJHOKg-14"><g><path d="M 345.15 224.49 L 345.15 297.37 Q 345.15 303.87 338.65 303.87 L 289.25 303.87 Q 282.75 303.87 282.75 310.37 L 282.75 383.26" fill="none" stroke="#000000" stroke-width="0.65" stroke-miterlimit="10" pointer-events="stroke" style="stroke: rgb(0, 0, 0);"/><path d="M 345.15 221.08 L 347.43 225.63 L 345.15 224.49 L 342.88 225.63 Z" fill="#000000" stroke="#000000" stroke-width="0.65" stroke-miterlimit="10" pointer-events="all" style="fill: rgb(0, 0, 0); stroke: rgb(0, 0, 0);"/><path d="M 282.75 386.67 L 280.48 382.12 L 282.75 383.26 L 285.03 382.12 Z" fill="#000000" stroke="#000000" stroke-width="0.65" stroke-miterlimit="10" pointer-events="all" style="fill: rgb(0, 0, 0); stroke: rgb(0, 0, 0);"/></g></g><g data-cell-id="dQKSGRMoL7s1ueKJHOKg-19"><g><path d="M 267.15 277.55 L 267.15 323.38 Q 267.15 329.88 267.08 336.37 L 266.55 383.26" fill="none" stroke="#000000" stroke-width="0.65" stroke-miterlimit="10" pointer-events="stroke" style="stroke: rgb(0, 0, 0);"/><path d="M 266.51 386.67 L 264.28 382.1 L 266.55 383.26 L 268.83 382.15 Z" fill="#000000" stroke="#000000" stroke-width="0.65" stroke-miterlimit="10" pointer-events="all" style="fill: rgb(0, 0, 0); stroke: rgb(0, 0, 0);"/></g></g><g data-cell-id="tEFLh3xXvXhqSFQfDNLb-8"><g><path d="M 0.65 68.25 L 937.95 68.25 L 937.95 670.15 L 0.65 670.15 Z" fill="none" stroke="#232f3e" stroke-width="0.65" stroke-miterlimit="10" pointer-events="none" style="stroke: rgb(35, 47, 62);"/><path d="M 4.61 72.92 C 4.56 72.92 4.5 72.92 4.45 72.93 C 4.23 72.92 4 72.95 3.78 73.01 C 3.59 73.05 3.41 73.12 3.24 73.2 C 3.19 73.23 3.15 73.26 3.11 73.3 C 3.09 73.34 3.08 73.39 3.08 73.44 L 3.08 73.66 C 3.08 73.75 3.11 73.79 3.18 73.79 L 3.24 73.79 L 3.39 73.74 C 3.54 73.68 3.7 73.63 3.86 73.59 C 4.01 73.55 4.17 73.53 4.32 73.53 C 4.57 73.51 4.83 73.58 5.03 73.73 C 5.18 73.93 5.26 74.18 5.23 74.43 L 5.23 74.74 C 5.06 74.7 4.9 74.67 4.74 74.65 C 4.58 74.63 4.43 74.61 4.27 74.62 C 3.89 74.59 3.51 74.71 3.21 74.95 C 2.95 75.17 2.81 75.5 2.82 75.84 C 2.8 76.15 2.92 76.45 3.13 76.67 C 3.37 76.89 3.68 77 4 76.98 C 4.49 76.99 4.96 76.77 5.27 76.38 C 5.32 76.48 5.36 76.57 5.4 76.64 C 5.44 76.71 5.5 76.78 5.56 76.84 C 5.59 76.88 5.64 76.9 5.69 76.9 C 5.73 76.9 5.77 76.89 5.8 76.86 L 6.07 76.68 C 6.12 76.65 6.15 76.61 6.16 76.55 C 6.15 76.52 6.14 76.48 6.12 76.45 C 6.07 76.35 6.02 76.25 5.98 76.14 C 5.95 76.02 5.93 75.89 5.93 75.76 L 5.94 74.34 C 5.98 73.95 5.85 73.57 5.59 73.28 C 5.31 73.05 4.97 72.92 4.61 72.92 Z M 13.58 72.93 C 13.51 72.92 13.44 72.93 13.37 72.93 C 13.19 72.93 13 72.95 12.82 73 C 12.66 73.05 12.5 73.12 12.36 73.23 C 12.23 73.32 12.13 73.45 12.05 73.58 C 11.97 73.73 11.93 73.89 11.93 74.05 C 11.93 74.28 12.01 74.5 12.15 74.68 C 12.33 74.9 12.57 75.05 12.84 75.12 L 13.47 75.32 C 13.63 75.36 13.78 75.44 13.91 75.54 C 13.98 75.62 14.03 75.73 14.02 75.85 C 14.03 76.01 13.94 76.17 13.8 76.25 C 13.61 76.36 13.39 76.41 13.17 76.4 C 12.99 76.4 12.82 76.38 12.65 76.34 C 12.49 76.31 12.34 76.26 12.19 76.19 L 12.08 76.15 C 12.05 76.14 12.02 76.14 12 76.15 C 11.93 76.15 11.9 76.19 11.9 76.28 L 11.9 76.5 C 11.9 76.54 11.91 76.59 11.93 76.63 C 11.96 76.68 12.01 76.72 12.06 76.75 C 12.22 76.83 12.39 76.88 12.56 76.92 C 12.78 76.97 13 76.99 13.23 76.99 L 13.21 77 C 13.43 76.99 13.64 76.96 13.84 76.89 C 14.01 76.84 14.17 76.76 14.3 76.65 C 14.44 76.55 14.55 76.42 14.62 76.27 C 14.7 76.11 14.73 75.94 14.73 75.77 C 14.74 75.55 14.67 75.33 14.53 75.16 C 14.36 74.96 14.12 74.81 13.86 74.74 L 13.25 74.55 C 13.08 74.5 12.92 74.42 12.79 74.31 C 12.7 74.23 12.66 74.12 12.66 74 C 12.65 73.84 12.73 73.69 12.86 73.61 C 13.04 73.52 13.24 73.48 13.44 73.49 C 13.72 73.49 14.01 73.54 14.27 73.66 C 14.32 73.69 14.38 73.71 14.44 73.71 C 14.5 73.71 14.54 73.67 14.54 73.58 L 14.54 73.37 C 14.54 73.32 14.53 73.27 14.5 73.23 C 14.46 73.19 14.42 73.15 14.37 73.12 L 14.19 73.05 L 13.94 72.98 L 13.66 72.93 C 13.63 72.93 13.6 72.93 13.58 72.93 Z M 11.06 73.03 C 11.01 73.03 10.96 73.05 10.91 73.07 C 10.87 73.12 10.84 73.18 10.83 73.25 L 10.08 76.14 L 9.41 73.26 C 9.39 73.2 9.37 73.14 9.32 73.09 C 9.27 73.06 9.21 73.04 9.15 73.05 L 8.8 73.05 C 8.74 73.04 8.68 73.06 8.63 73.09 C 8.58 73.13 8.55 73.19 8.54 73.26 L 7.86 76.14 L 7.13 73.25 C 7.12 73.19 7.09 73.13 7.04 73.08 C 6.99 73.05 6.93 73.04 6.88 73.04 L 6.45 73.04 C 6.38 73.04 6.35 73.08 6.35 73.15 C 6.35 73.21 6.36 73.27 6.38 73.32 L 7.4 76.67 C 7.41 76.73 7.44 76.79 7.49 76.84 C 7.54 76.87 7.6 76.89 7.66 76.88 L 8.04 76.87 C 8.1 76.88 8.16 76.86 8.21 76.83 C 8.25 76.78 8.28 76.72 8.29 76.65 L 8.96 73.87 L 9.63 76.65 C 9.64 76.72 9.67 76.78 9.72 76.83 C 9.77 76.86 9.83 76.88 9.89 76.87 L 10.26 76.87 C 10.32 76.88 10.38 76.86 10.43 76.83 C 10.47 76.78 10.5 76.72 10.52 76.66 L 11.57 73.32 C 11.59 73.27 11.59 73.21 11.59 73.21 C 11.59 73.18 11.59 73.16 11.59 73.14 C 11.6 73.11 11.59 73.08 11.56 73.06 C 11.54 73.04 11.52 73.03 11.49 73.03 L 11.08 73.03 C 11.08 73.03 11.07 73.03 11.06 73.03 Z M 4.32 75.15 C 4.35 75.15 4.39 75.15 4.42 75.15 L 4.83 75.15 C 4.97 75.17 5.11 75.19 5.24 75.21 L 5.24 75.41 C 5.24 75.54 5.23 75.66 5.2 75.79 C 5.17 75.89 5.12 75.98 5.05 76.06 C 4.94 76.19 4.8 76.28 4.64 76.34 C 4.49 76.39 4.34 76.42 4.18 76.42 C 4.02 76.44 3.85 76.39 3.72 76.29 C 3.61 76.17 3.55 76 3.57 75.83 C 3.55 75.64 3.63 75.45 3.78 75.33 C 3.94 75.22 4.13 75.15 4.32 75.15 Z M 14.33 77.82 C 13.87 77.83 13.33 77.93 12.93 78.21 C 12.8 78.3 12.82 78.41 12.96 78.41 C 13.42 78.35 14.44 78.23 14.63 78.46 C 14.81 78.69 14.42 79.65 14.26 80.09 C 14.21 80.21 14.32 80.27 14.44 80.17 C 15.2 79.53 15.42 78.2 15.25 78 C 15.16 77.9 14.78 77.81 14.33 77.82 Z M 2.37 78.07 C 2.28 78.08 2.22 78.2 2.33 78.29 C 4.09 79.88 6.39 80.75 8.76 80.74 C 10.64 80.75 12.48 80.18 14.03 79.13 C 14.27 78.96 14.06 78.7 13.82 78.8 C 12.27 79.45 10.6 79.8 8.91 79.8 C 6.65 79.8 4.43 79.21 2.47 78.09 C 2.44 78.07 2.4 78.06 2.37 78.07 Z M 0.65 68.25 L 16.9 68.25 L 16.9 84.5 L 0.65 84.5 Z" fill="#232f3e" stroke="none" pointer-events="all" style="fill: rgb(35, 47, 62);"/></g><g><g transform="scale(0.65)"><switch><foreignObject style="overflow: visible; text-align: left;" pointer-events="none" width="154%" height="154%" requiredFeatures="http://www.w3.org/TR/SVG11/feature#Extensibility"><div xmlns="http://www.w3.org/1999/xhtml" style="display: flex; align-items: unsafe flex-start; justify-content: unsafe flex-start; width: 1410px; height: 1px; padding-top: 112px; margin-left: 33px;"><div style="box-sizing: border-box; font-size: 0; text-align: left; color: #232F3E; "><div style="display: inline-block; font-size: 20px; font-family: Helvetica; color: #232F3E; line-height: 1.2; pointer-events: all; white-space: normal; word-wrap: normal; ">AWS Cloud</div></div></div></foreignObject><text x="33" y="132" fill="#232F3E" font-family="Helvetica" font-size="20px">AWS Cloud</text></switch></g></g><g data-cell-id="9mmT4nvgBSCIqZwyjkyF-6"><g><path d="M 183.3 248.22 L 183.3 124.8 Q 183.3 118.3 189.8 118.3 L 466.91 118.3" fill="none" stroke="#000000" stroke-width="0.65" stroke-miterlimit="10" pointer-events="stroke" style="stroke: rgb(0, 0, 0);"/><path d="M 183.3 252.77 L 181.03 248.22 L 185.58 248.22 Z" fill="#000000" stroke="#000000" stroke-width="0.65" stroke-miterlimit="10" pointer-events="all" style="fill: rgb(0, 0, 0); stroke: rgb(0, 0, 0);"/><path d="M 471.46 118.3 L 466.91 120.58 L 466.91 116.03 Z" fill="#000000" stroke="#000000" stroke-width="0.65" stroke-miterlimit="10" pointer-events="all" style="fill: rgb(0, 0, 0); stroke: rgb(0, 0, 0);"/></g></g><g data-cell-id="9mmT4nvgBSCIqZwyjkyF-7"><g><path d="M 266.19 237.91 L 266.18 149.5 Q 266.18 143 272.68 143 L 471.25 143" fill="none" stroke="#000000" stroke-width="0.65" stroke-miterlimit="10" pointer-events="stroke" style="stroke: rgb(0, 0, 0);"/><path d="M 263.91 234.09 L 266.19 238.64 L 268.46 234.09" fill="none" stroke="#000000" stroke-width="0.65" stroke-miterlimit="10" pointer-events="all" style="stroke: rgb(0, 0, 0);"/></g></g></g><g data-cell-id="tEFLh3xXvXhqSFQfDNLb-27"><g><rect x="293.15" y="167.7" width="110.5" height="76.7" fill="none" stroke="#dd3522" stroke-width="0.65" pointer-events="all" style="stroke: rgb(221, 53, 34);"/></g><g><g transform="scale(0.65)"><switch><foreignObject style="overflow: visible; text-align: left;" pointer-events="none" width="154%" height="154%" requiredFeatures="http://www.w3.org/TR/SVG11/feature#Extensibility"><div xmlns="http://www.w3.org/1999/xhtml" style="display: flex; align-items: unsafe flex-start; justify-content: unsafe center; width: 168px; height: 1px; padding-top: 265px; margin-left: 452px;"><div style="box-sizing: border-box; font-size: 0; text-align: center; color: #DD3522; "><div style="display: inline-block; font-size: 20px; font-family: Helvetica; color: #DD3522; line-height: 1.2; pointer-events: all; white-space: normal; word-wrap: normal; ">Security group</div></div></div></foreignObject><text x="536" y="285" fill="#DD3522" font-family="Helvetica" font-size="20px" text-anchor="middle">Security group</text></switch></g></g></g><g data-cell-id="tEFLh3xXvXhqSFQfDNLb-44"><g><rect x="293.15" y="536.9" width="414.05" height="61.75" fill="none" stroke="#000000" stroke-width="0.65" stroke-dasharray="5.2 5.2" pointer-events="all" style="stroke: rgb(0, 0, 0);"/></g><g><g transform="scale(0.65)"><switch><foreignObject style="overflow: visible; text-align: left;" pointer-events="none" width="154%" height="154%" requiredFeatures="http://www.w3.org/TR/SVG11/feature#Extensibility"><div xmlns="http://www.w3.org/1999/xhtml" style="display: flex; align-items: unsafe flex-start; justify-content: unsafe center; width: 635px; height: 1px; padding-top: 833px; margin-left: 452px;"><div style="box-sizing: border-box; font-size: 0; text-align: center; color: #232F3D; "><div style="display: inline-block; font-size: 20px; font-family: Helvetica; color: #232F3D; line-height: 1.2; pointer-events: all; white-space: normal; word-wrap: normal; ">subnet group</div></div></div></foreignObject><text x="770" y="853" fill="#232F3D" font-family="Helvetica" font-size="20px" text-anchor="middle">subnet group</text></switch></g></g></g></g><g data-cell-id="tEFLh3xXvXhqSFQfDNLb-45"><g><path d="M 222.3 25.02 L 495.14 25.02 Q 501.64 25.02 501.64 31.52 L 501.64 101.16" fill="none" stroke="#000000" stroke-width="0.65" stroke-miterlimit="10" pointer-events="stroke" style="stroke: rgb(0, 0, 0);"/><path d="M 501.64 104.57 L 499.36 100.02 L 501.64 101.16 L 503.91 100.02 Z" fill="#000000" stroke="#000000" stroke-width="0.65" stroke-miterlimit="10" pointer-events="all" style="fill: rgb(0, 0, 0); stroke: rgb(0, 0, 0);"/></g></g><g data-cell-id="tEFLh3xXvXhqSFQfDNLb-40"><g><rect x="171.6" y="-0.33" width="50.7" height="50.7" fill="none" stroke="none" pointer-events="all"/><path d="M 202.3 8.07 C 202.3 4.71 205.08 1.98 208.49 1.98 C 211.91 1.98 214.69 4.71 214.69 8.07 C 214.69 11.43 211.91 14.16 208.49 14.16 C 205.08 14.16 202.3 11.43 202.3 8.07 Z M 215.57 16.19 C 214.83 15.73 214.04 15.35 213.23 15.04 C 215.5 13.53 217 10.97 217 8.07 C 217 3.44 213.18 -0.33 208.49 -0.33 C 203.81 -0.33 199.99 3.44 199.99 8.07 C 199.99 10.96 201.48 13.52 203.74 15.03 C 202.27 15.59 200.88 16.4 199.66 17.45 L 201.16 19.2 C 203.21 17.44 205.81 16.47 208.47 16.47 C 210.55 16.47 212.59 17.05 214.36 18.15 C 217.52 20.11 219.59 23.56 219.94 27.33 L 208.47 27.33 L 208.47 29.63 L 221.15 29.63 C 221.78 29.63 222.3 29.12 222.3 28.48 C 222.3 23.48 219.72 18.77 215.57 16.19 Z M 179.25 8.07 C 179.25 4.71 182.03 1.98 185.45 1.98 C 188.87 1.98 191.65 4.71 191.65 8.07 C 191.65 11.43 188.87 14.16 185.45 14.16 C 182.03 14.16 179.25 11.43 179.25 8.07 Z M 185.43 27.33 L 173.96 27.33 C 174.52 21.24 179.45 16.47 185.43 16.47 C 187.5 16.47 189.54 17.05 191.31 18.15 C 191.81 18.46 192.29 18.81 192.74 19.2 L 194.24 17.45 C 193.71 16.99 193.13 16.56 192.53 16.19 C 191.78 15.73 191 15.35 190.18 15.04 C 192.45 13.53 193.95 10.97 193.95 8.07 C 193.95 3.44 190.14 -0.33 185.45 -0.33 C 180.76 -0.33 176.95 3.44 176.95 8.07 C 176.95 10.97 178.44 13.53 180.71 15.04 C 175.4 17.04 171.6 22.3 171.6 28.48 C 171.6 29.12 172.12 29.63 172.75 29.63 L 185.43 29.63 Z M 185.48 48.07 C 186.04 41.98 190.97 37.21 196.95 37.21 C 199.03 37.21 201.06 37.79 202.84 38.89 C 205.99 40.85 208.07 44.3 208.42 48.07 Z M 190.77 28.81 C 190.77 25.45 193.55 22.72 196.97 22.72 C 200.39 22.72 203.17 25.45 203.17 28.81 C 203.17 32.17 200.39 34.9 196.97 34.9 C 193.55 34.9 190.77 32.17 190.77 28.81 Z M 204.05 36.93 C 203.31 36.47 202.52 36.09 201.71 35.78 C 203.98 34.27 205.47 31.71 205.47 28.81 C 205.47 24.18 201.66 20.42 196.97 20.42 C 192.28 20.42 188.47 24.18 188.47 28.81 C 188.47 31.71 189.96 34.27 192.23 35.78 C 186.93 37.78 183.12 43.04 183.12 49.22 C 183.12 49.86 183.64 50.38 184.28 50.38 L 209.63 50.38 C 210.26 50.38 210.78 49.86 210.78 49.22 C 210.78 44.22 208.2 39.51 204.05 36.93 Z" fill="#232f3d" stroke="none" pointer-events="all" style="fill: rgb(35, 47, 61);"/></g><g><g transform="scale(0.65)"><switch><foreignObject style="overflow: visible; text-align: left;" pointer-events="none" width="154%" height="154%" requiredFeatures="http://www.w3.org/TR/SVG11/feature#Extensibility"><div xmlns="http://www.w3.org/1999/xhtml" style="display: flex; align-items: unsafe flex-start; justify-content: unsafe center; width: 1px; height: 1px; padding-top: 85px; margin-left: 303px;"><div style="box-sizing: border-box; font-size: 0; text-align: center; color: #232F3E; "><div style="display: inline-block; font-size: 12px; font-family: Helvetica; color: #232F3E; line-height: 1.2; pointer-events: all; white-space: nowrap; ">Administrators</div></div></div></foreignObject><text x="303" y="97" fill="#232F3E" font-family="Helvetica" font-size="12px" text-anchor="middle">Administrators</text></switch></g></g></g><g data-cell-id="tEFLh3xXvXhqSFQfDNLb-46"><g><path d="M 641.55 25.02 L 508.14 25.02 Q 501.64 25.02 501.64 31.52 L 501.64 101.16" fill="none" stroke="#000000" stroke-width="0.65" stroke-miterlimit="10" pointer-events="stroke" style="stroke: rgb(0, 0, 0);"/><path d="M 501.64 104.57 L 499.36 100.02 L 501.64 101.16 L 503.91 100.02 Z" fill="#000000" stroke="#000000" stroke-width="0.65" stroke-miterlimit="10" pointer-events="all" style="fill: rgb(0, 0, 0); stroke: rgb(0, 0, 0);"/></g></g><g data-cell-id="tEFLh3xXvXhqSFQfDNLb-41"><g><rect x="641.55" y="5.85" width="49.6" height="38.35" fill="none" stroke="none" pointer-events="all"/><path d="M 644.52 5.85 C 643.75 5.85 643.04 6.06 642.49 6.44 C 641.95 6.82 641.55 7.4 641.55 8.08 L 641.55 31.81 C 641.55 32.49 641.95 33.07 642.49 33.45 C 643.04 33.83 643.75 34.04 644.52 34.04 L 662.48 34.04 L 661.71 39.28 C 660.67 39.48 659.72 39.75 658.88 40.08 C 656.88 40.87 655.46 42.01 655.06 43.48 C 655.01 43.64 655.04 43.81 655.15 43.95 C 655.25 44.08 655.41 44.16 655.58 44.16 L 677.12 44.2 C 677.29 44.2 677.44 44.13 677.54 44 C 677.65 43.87 677.69 43.71 677.65 43.55 C 677.38 42.23 676.16 41.09 674.28 40.25 C 673.35 39.84 672.25 39.5 670.99 39.26 L 670.12 34.04 L 688.18 34.04 C 688.95 34.04 689.66 33.83 690.21 33.45 C 690.75 33.07 691.15 32.49 691.15 31.81 L 691.15 8.08 C 691.15 7.4 690.75 6.82 690.21 6.44 C 689.66 6.06 688.95 5.85 688.18 5.85 Z M 644.52 6.93 L 688.18 6.93 C 688.75 6.93 689.26 7.1 689.59 7.33 C 689.92 7.56 690.07 7.82 690.07 8.08 L 690.07 31.81 C 690.07 32.07 689.92 32.33 689.59 32.56 C 689.26 32.79 688.75 32.96 688.18 32.96 L 644.52 32.96 C 643.95 32.96 643.44 32.79 643.11 32.56 C 642.78 32.33 642.63 32.07 642.63 31.81 L 642.63 8.08 C 642.63 7.82 642.78 7.56 643.11 7.33 C 643.44 7.1 643.95 6.93 644.52 6.93 Z M 663.57 34.04 L 669.03 34.04 L 669.86 39.08 C 668.85 38.95 667.75 38.88 666.56 38.88 L 666.55 38.88 C 665.23 38.86 663.98 38.94 662.83 39.09 Z M 666 39.96 C 666.18 39.96 666.36 39.96 666.55 39.96 C 666.55 39.96 666.55 39.96 666.55 39.96 C 669.68 39.96 672.14 40.48 673.84 41.24 C 675.11 41.8 675.78 42.47 676.19 43.12 L 656.58 43.08 C 657.07 42.35 657.89 41.63 659.28 41.08 C 660.99 40.41 663.31 39.98 666 39.96 Z" fill="#000000" stroke="none" pointer-events="all" style="fill: rgb(0, 0, 0);"/></g><g><g transform="scale(0.65)"><switch><foreignObject style="overflow: visible; text-align: left;" pointer-events="none" width="154%" height="154%" requiredFeatures="http://www.w3.org/TR/SVG11/feature#Extensibility"><div xmlns="http://www.w3.org/1999/xhtml" style="display: flex; align-items: unsafe flex-start; justify-content: unsafe center; width: 1px; height: 1px; padding-top: 75px; margin-left: 1025px;"><div style="box-sizing: border-box; font-size: 0; text-align: center; color: #000000; "><div style="display: inline-block; font-size: 20px; font-family: Helvetica; color: #000000; line-height: 1.2; pointer-events: all; white-space: nowrap; ">Clients</div></div></div></foreignObject><text x="1025" y="95" fill="light-dark(#000000, #ffffff)" font-family="Helvetica" font-size="20px" text-anchor="middle">Clients</text></switch></g></g></g></g></g></g></svg>